<svg xmlns="http://www.w3.org/2000/svg" width="447.908" height="448.021" viewBox="0 0 447.908 448.021">
  <g id="Alteration" transform="translate(-10.758 -9.77)">
    <path id="Path_529" data-name="Path 529" d="M336.59,10.079c-11.641,11.012-20.923,20.293-31.463,28.631A20.294,20.294,0,0,1,292.7,41.7H43.673V424.914H394.8v-211.9a31.463,31.463,0,0,1,10.855-26.586c6.764-5.821,12.9-12.428,20.765-20.293V419.565a33.665,33.665,0,0,1-37.6,37.912H49.337a33.98,33.98,0,0,1-38.227-38.542V47.677a33.508,33.508,0,0,1,37.755-37.6Z" transform="translate(0 0)" fill="#d81f33"/>
    <path id="Path_530" data-name="Path 530" d="M16.89,361.27V269.241a15.731,15.731,0,0,1,5.663-9.281Q144.471,140.087,267.8,20.372a30.361,30.361,0,0,1,46.093,0c14.158,13.686,28,27.687,41.845,41.688a31.463,31.463,0,0,1,0,50.34c-76.769,78.657-153.695,157.313-229.834,235.97A39.957,39.957,0,0,1,92.4,362.213C68.017,360.483,43.476,361.27,16.89,361.27ZM289.042,43.5h0q-117.513,115-235.026,230.149a13.687,13.687,0,0,0-4.877,8.338v47.194H87.681a25.17,25.17,0,0,0,20.765-8.652Q209.756,216.542,311.38,112.872c8.495-8.652,17.934-15.731,27.372-24.541Z" transform="translate(90.338 0.09)" fill="#d81f33"/>
  </g>
</svg>
