<svg xmlns="http://www.w3.org/2000/svg" xmlns:xlink="http://www.w3.org/1999/xlink" width="35" height="35" viewBox="0 0 35 35">
  <defs>
    <clipPath id="clip-path">
      <rect width="35" height="35" fill="none"/>
    </clipPath>
  </defs>
  <g id="Set_Autoritation" data-name="Set Autoritation" transform="translate(0 0)" clip-path="url(#clip-path)">
    <circle id="Ellipse_71" data-name="Ellipse 71" cx="17.5" cy="17.5" r="17.5" fill="#a42ac1"/>
    <g id="Group_283" data-name="Group 283" transform="translate(-146.262 -271.885)">
      <path id="Path_423" data-name="Path 423" d="M170.09,283.224c0,3.162-2.865,5.725-6.4,5.725s-6.4-2.563-6.4-5.725,2.865-5.724,6.4-5.724S170.09,280.063,170.09,283.224Z" fill="#a42ac1" stroke="#fff" stroke-miterlimit="10" stroke-width="2"/>
      <path id="Rectangle_199" data-name="Rectangle 199" d="M7.1,0h4.474a7.1,7.1,0,0,1,7.1,7.1v5.086a2.221,2.221,0,0,1-2.221,2.221H2.221A2.221,2.221,0,0,1,0,12.189V7.1A7.1,7.1,0,0,1,7.1,0Z" transform="translate(154.335 283.793)" fill="#fff" stroke="#fff" stroke-miterlimit="10" stroke-width="0.75"/>
      <path id="Path_424" data-name="Path 424" d="M164.218,291.667l.881,2.8a.344.344,0,0,1-.328.447h-2.193a.344.344,0,0,1-.328-.447l.883-2.8a1.813,1.813,0,0,1-1.212-2.177,1.79,1.79,0,0,1,1.31-1.3,1.809,1.809,0,0,1,.987,3.479Z" fill="#a42ac1"/>
    </g>
  </g>
</svg>
