<svg xmlns="http://www.w3.org/2000/svg" xmlns:xlink="http://www.w3.org/1999/xlink" width="48" height="48" viewBox="0 0 48 48">
  <defs>
    <clipPath id="clip-path">
      <rect width="48" height="48" fill="none"/>
    </clipPath>
  </defs>
  <g id="Batch_Management_Icon" data-name="Batch Management Icon" transform="translate(0 0.001)" clip-path="url(#clip-path)">
    <circle id="Ellipse_95" data-name="Ellipse 95" cx="24" cy="24" r="24" fill="#bb550b"/>
    <path id="Path_486" data-name="Path 486" d="M438.712,40.864h-1.97v-2.2a3.852,3.852,0,0,0-3.848-3.848H412.556a3.852,3.852,0,0,0-3.848,3.848V59a3.853,3.853,0,0,0,3.848,3.848h2.382v1.786a1.878,1.878,0,0,0,1.878,1.878h21.9a1.878,1.878,0,0,0,1.878-1.878v-21.9A1.878,1.878,0,0,0,438.712,40.864ZM412.556,60.653A1.651,1.651,0,0,1,410.906,59V38.665a1.651,1.651,0,0,1,1.65-1.649h20.338a1.651,1.651,0,0,1,1.649,1.649v2.2H416.816a1.878,1.878,0,0,0-1.878,1.878V60.653Z" transform="translate(-400.649 -26.667)" fill="#fff"/>
    <rect id="Rectangle_207" data-name="Rectangle 207" width="20.614" height="20.614" transform="translate(16.808 16.717)" fill="#bb550b"/>
    <g id="Group_296" data-name="Group 296" transform="translate(-400.649 -26.667)">
      <path id="Path_487" data-name="Path 487" d="M432.04,52.674h-2.051a.309.309,0,0,1-.318-.194.284.284,0,0,1,.1-.329c.3-.305.6-.607.907-.91.275-.275.281-.281.005-.55a4.047,4.047,0,0,0-6.857,2.039c-.089.4-.168.478-.579.478h-1.617c-.406,0-.541-.159-.492-.556a6.421,6.421,0,0,1,1.273-3.16A6.539,6.539,0,0,1,426.69,46.9a6.618,6.618,0,0,1,5,1.148,6.311,6.311,0,0,1,.99.864c.154.164.155.163.319,0q.449-.448.9-.9c.1-.1.209-.189.367-.12a.335.335,0,0,1,.188.357q0,2.009,0,4.018c0,.3-.1.4-.405.4C433.374,52.675,432.707,52.674,432.04,52.674Z" fill="#fff"/>
      <path id="Path_488" data-name="Path 488" d="M421.108,56.672V54.689c0-.314.1-.414.4-.414q1.992,0,3.984,0h.016a.331.331,0,0,1,.369.194c.068.167-.035.273-.138.377-.195.2-.392.394-.589.59-.133.134-.261.274-.4.4-.125.109-.1.191,0,.3a4.053,4.053,0,0,0,5.771.266,3.876,3.876,0,0,0,1.221-2.257.412.412,0,0,1,.458-.4q.9,0,1.8,0a.4.4,0,0,1,.428.513,6.658,6.658,0,0,1-5.571,5.789,6.629,6.629,0,0,1-4.982-1.142,5.828,5.828,0,0,1-1.034-.912c-.088-.1-.147-.1-.239-.005-.294.3-.6.6-.895.9-.114.113-.224.246-.415.164s-.187-.241-.187-.407C421.109,57.983,421.108,57.328,421.108,56.672Z" fill="#fff"/>
    </g>
    <ellipse id="Ellipse_96" data-name="Ellipse 96" cx="4.208" cy="0.25" rx="4.208" ry="0.25" transform="translate(22.928 35.122)" fill="#fff"/>
  </g>
</svg>
