<svg xmlns="http://www.w3.org/2000/svg" width="450.486" height="447.9" viewBox="0 0 450.486 447.9">
  <g id="Batch_managemetn" data-name="Batch managemetn" transform="translate(-8.059 -8.15)">
    <path id="Path_1168" data-name="Path 1168" d="M33.2,29.33l345.658.271V375.77L33.2,380.014Z" fill="#fff"/>
    <path id="Path_486" data-name="Path 486" d="M832.658,120.26H804.822V89.188a54.429,54.429,0,0,0-54.371-54.371H463.079a54.429,54.429,0,0,0-54.371,54.371V376.574a54.438,54.438,0,0,0,54.371,54.371h33.657v25.236a26.53,26.53,0,0,0,26.536,26.536H832.658a26.539,26.539,0,0,0,26.536-26.536V146.8A26.539,26.539,0,0,0,832.658,120.26ZM463.079,399.874a23.334,23.334,0,0,1-23.314-23.3V89.188a23.334,23.334,0,0,1,23.314-23.3H750.451a23.322,23.322,0,0,1,23.3,23.3V120.26H523.272A26.53,26.53,0,0,0,496.736,146.8V399.874Z" transform="translate(-400.649 -26.667)" fill="#bb550b"/>
    <rect id="Rectangle_207" data-name="Rectangle 207" width="291.265" height="291.265" transform="translate(131.68 129.189)" fill="#fff"/>
    <g id="Group_296" data-name="Group 296" transform="translate(183.254 177.6)">
      <path id="Path_487" data-name="Path 487" d="M575.372,129.675H547.8c-.466,0-.947-.014-1.412-.014a4.367,4.367,0,0,1-4.494-2.741c-.8-1.922.085-3.377,1.343-4.649,4.253-4.31,8.534-8.577,12.816-12.858,3.886-3.886,3.971-3.97.071-7.771-16.193-15.882-35.508-21.11-57.141-14.766-21.732,6.373-34.844,21.463-39.747,43.576-1.258,5.694-2.374,6.754-8.181,6.754-7.616,0-15.232.014-22.848,0-5.737-.014-7.644-2.247-6.952-7.856A90.722,90.722,0,0,1,439.246,84.7c15.331-20.149,35.536-32.456,60.532-36.54,25.674-4.2,49.228,1.427,70.607,16.221A89.169,89.169,0,0,1,584.373,76.59c2.176,2.317,2.19,2.3,4.508.014q6.337-6.337,12.66-12.66c1.441-1.427,2.953-2.671,5.186-1.7s2.656,2.854,2.656,5.044q-.021,28.38-.014,56.773c0,4.182-1.456,5.6-5.723,5.6C594.221,129.69,584.8,129.675,575.372,129.675Z" transform="translate(-420.891 -46.809)" fill="#bb550b"/>
      <path id="Path_488" data-name="Path 488" d="M421.121,95.167V67.148c.014-4.437,1.385-5.85,5.722-5.85q28.147-.021,56.293,0h.226c2.261-.071,4.253.353,5.214,2.741.961,2.36-.495,3.857-1.95,5.327-2.755,2.8-5.539,5.567-8.322,8.337-1.879,1.893-3.687,3.871-5.68,5.638-1.766,1.54-1.441,2.7-.014,4.267a57.271,57.271,0,0,0,81.543,3.759,54.775,54.775,0,0,0,17.252-31.891c.693-3.956,2.529-5.694,6.471-5.708q12.717-.042,25.434,0c4.451.028,6.6,2.812,6.047,7.249-2.246,17.959-8.831,34.109-20.333,48.112-15.217,18.51-34.717,29.842-58.384,33.685-25.589,4.14-49.059-1.441-70.394-16.136a82.334,82.334,0,0,1-14.611-12.886c-1.243-1.385-2.076-1.427-3.377-.071-4.154,4.281-8.407,8.464-12.646,12.674-1.611,1.6-3.165,3.476-5.864,2.317-2.586-1.116-2.643-3.405-2.643-5.751C421.136,113.691,421.121,104.436,421.121,95.167Z" transform="translate(-421.107 44.19)" fill="#bb550b"/>
    </g>
    <ellipse id="Ellipse_96" data-name="Ellipse 96" cx="59.463" cy="3.532" rx="59.463" ry="3.532" transform="translate(218.155 389.249)" fill="#fff"/>
  </g>
</svg>
