<svg xmlns="http://www.w3.org/2000/svg" xmlns:xlink="http://www.w3.org/1999/xlink" width="576.91" height="424.41" viewBox="0 0 576.91 424.41">
  <defs>
    <filter id="Path_519" x="260.189" y="41.461" width="165.092" height="360.604" filterUnits="userSpaceOnUse">
      <feOffset dx="-20" dy="3" input="SourceAlpha"/>
      <feGaussianBlur stdDeviation="7.5" result="blur"/>
      <feFlood flood-color="#883535" flood-opacity="0.161"/>
      <feComposite operator="in" in2="blur"/>
      <feComposite in="SourceGraphic"/>
    </filter>
  </defs>
  <g id="benefit_pension" data-name="benefit pension" transform="translate(-6.385 -9.859)">
    <g id="Group_306" data-name="Group 306" transform="translate(152.801 9.859)">
      <path id="Path_502" data-name="Path 502" d="M891.919,225.883A95.7,95.7,0,0,0,875.758,260.9c-17.111-.792-38.023-2.535-52.917-4.595-9.822-1.268-19.329-4.436-28.994-6.654-5.069-1.267-9.981-2.377-14.575-3.8-19.013-5.228-34.54-11.407-53.393-21.072-1.109-.475-2.219-1.109-3.486-1.743C705.123,214,690.23,202.277,685,182.472c-4.595-16.953-2.692-33.905,2.693-50.065a101.161,101.161,0,0,1,7.447-17.428,98.469,98.469,0,0,1,11.883-18.7c11.565-14.734,26.616-26.459,44.361-35.173,13.308-6.654,28.2-9.981,42.46-14.576,4.12-1.267,7.289.317,10.933,3.01a25.691,25.691,0,0,0,2.693,1.743c14.893,10.457,30.419,16.319,47.056,16.636a130.635,130.635,0,0,0-9.823,21.389,130.7,130.7,0,0,0-5.546,26.459c0,1.109-.158,2.218-.158,3.486-.159,2.377-.316,4.911-.316,7.446C838.685,167.421,859.756,203.544,891.919,225.883Z" transform="translate(-682.412 46.905)" fill="#aa828a"/>
      <path id="Path_503" data-name="Path 503" d="M721.39,48.769V157.614c-16.636-14.1-26.934-33.113-26.934-54.343a30.572,30.572,0,0,1,.158-3.8C695.723,79.822,705.7,62.078,721.39,48.769Z" transform="translate(-503.644 86.656)" fill="#a97f87"/>
      <path id="Path_504" data-name="Path 504" d="M800.489,84.863c-8.714,10.615-16.16,21.706-20.6,34.539a118.054,118.054,0,0,0-20.121,19.646c-8.556,1.109-17.428-.158-26.934-1.9-4.6-1.743-10.3-3.644-16-5.862a41.076,41.076,0,0,1-10.773-5.862c-5.7-4.595-9.189-10.932-9.823-20.121a158.583,158.583,0,0,0-2.377-17.111c-1.268-7.288-2.852-14.418-3.961-21.547-1.584-8.714,2.06-17.586,11.249-16,4.753.792,14.418,13.467,16.952,17.745,16,26.3,17.587-8.239,20.756-18.7,2.852-9.823,10.773-10.3,18.378-8.872,7.764,1.426,10.615,7.763,10.933,14.418,1.268,18.7,4.594,24.716,19.171,11.249.633-.317,4.118-1.9,6.337-1.743,6.653.634,7.446,2.535,10.457,5.7C808.252,74.882,803.976,80.585,800.489,84.863Z" transform="translate(-576.565 -40.221)" fill="#aa828a"/>
      <g id="Group_305" data-name="Group 305" transform="translate(99.335 133.207)">
        <path id="Path_505" data-name="Path 505" d="M753.541,139.412,725.021,96.16l5.07-21.389.158-.475,15.844,3.8a130.7,130.7,0,0,1,5.546-26.459l-12.834-3.01-2.534,11.09a31.6,31.6,0,0,1-3.645-.951,30.684,30.684,0,0,0-3.485-.951c-4.436-.951-7.764-1.109-10.141-.317-3.168,1.109-5.386,3.961-6.5,8.556L710.129,76.2l-3.8,16.16a14.035,14.035,0,0,0,1.744,11.09l28.518,43.57-5.7,24.241-20.755-5.07-1.584-.317,1.584-6.654,4.278-18.062-5.07-1.268h-.158l-13.309-3.169-6.654,28.36c-1.108,4.753-.476,8.239,1.743,10.615,1.9,1.743,4.911,3.169,9.347,4.278.793.158,2.06.317,3.486.634a17.64,17.64,0,0,0,2.06.475c.634.159,1.109.317,1.584.475l-2.693,10.932,17.428,4.119,2.694-10.932a30.932,30.932,0,0,1,3.485.792c1.584.475,2.692.634,3.485.951,4.437.951,7.922,1.109,10.3.317,3.169-1.109,5.388-3.961,6.5-8.555l6.813-28.677A13.572,13.572,0,0,0,753.541,139.412Z" transform="translate(-688.682 -48.629)" fill="#fff"/>
      </g>
    </g>
    <g id="Group_308" data-name="Group 308" transform="translate(6.384 44.612)">
      <path id="Path_506" data-name="Path 506" d="M944.125,198.4c-7.24,16.081-21.056,25.255-36.439,31.465-2.9,1.125-6.2,2.456-9.522,3.66-16.128,6.195-36.25,13.118-50.842,17.269-9.537,2.773-19.534,3.723-29.39,5.529-27.71,5.07-47.7,6.211-76.1,4.325-19.425-1.315-37.708-6.084-50.541-22.181-10.9-13.657-15.955-29.992-17.587-46.96-3.168-34.238,7.779-64.737,29.707-90.878,9.586-11.344,21.943-20.391,33.1-30.4,3.185-2.789,6.764-2.567,11.216-1.6,28.456,6.29,54.471,1.679,76.746-18.474a7.915,7.915,0,0,1,5.1-1.965A198.467,198.467,0,0,1,866,57.757c34.412,13.023,61.251,36.3,77.237,73.672C952.507,153.04,954.329,175.886,944.125,198.4Z" transform="translate(-673.17 42.978)" fill="#6f3340"/>
      <path id="Path_507" data-name="Path 507" d="M746.414,140.8c-4.9.349-10.964.856-17.032,1.172-12.9.7-22.767-3.2-29.326-15.622-6.083-11.487-14.164-21.927-21.356-32.844-4.849-7.383-5.1-16.889,3.913-19.155,4.785-1.22,18.632,6.591,22.688,9.427,25.175,17.65,12.849-14.544,11.519-25.366-1.269-10.156,5.766-13.784,13.34-15.606,7.557-1.822,12.69,2.868,15.779,8.872,8.571,16.651,14.133,20.771,22.118,2.63a12.45,12.45,0,0,1,5.054-4.183c6.242-2.06,7.779-.7,11.788,1.062,5.545,2.44,4.008,9.268,2.487,14.592-4.642,16.43-7.192,32.907-3.787,50.065.618,3.121-1.79,8-4.356,10.393C770.417,134.452,759.105,137.826,746.414,140.8Z" transform="translate(-640.596 -42.415)" fill="#6f3340"/>
      <g id="Group_307" data-name="Group 307" transform="translate(96.765 131.17)">
        <path id="Path_508" data-name="Path 508" d="M758.059,169.568q1.283,7.058-2.566,10.5c-1.838,1.664-5.055,2.9-9.586,3.739-.76.127-1.933.317-3.549.57l-3.6.65,2.028,11.138-17.539,3.216-2.043-11.138-3.6.65c-1.553.349-2.725.586-3.518.729q-6.75,1.236-10.219-.111-4.635-1.806-5.941-8.936l-5.261-28.693,18.76-3.438,4.594,25.08,22.608-4.135-4.467-24.447-43.729-28.439a13.665,13.665,0,0,1-5.957-9.427l-4.864-26.617c-.871-4.706-.063-8.191,2.393-10.457,1.854-1.664,5.022-2.915,9.506-3.723.809-.158,2-.349,3.581-.586,1.584-.222,2.772-.412,3.581-.57L696.633,53.91l17.539-3.216,2.06,11.233c.809-.158,2.013-.4,3.628-.76,1.633-.349,2.837-.6,3.629-.745q6.749-1.236,10.219.127c3.138,1.188,5.149,4.1,6,8.761L744.671,96.4l-18.759,3.422-4.214-23-22.609,4.135,4.024,22.054,43.427,28.17a13.451,13.451,0,0,1,6.211,9.379Z" transform="translate(-679.278 -50.694)" fill="#fff"/>
      </g>
    </g>
    <g id="Group_310" data-name="Group 310" transform="translate(56.023 36.424)">
      <path id="Path_509" data-name="Path 509" d="M721.39,75.893v34.222C704.754,96.014,694.456,77,694.456,55.771a30.572,30.572,0,0,1,.158-3.8A161.372,161.372,0,0,1,721.39,75.893Z" transform="translate(-406.867 107.59)" fill="#4e0011"/>
      <path id="Path_510" data-name="Path 510" d="M963.893,223.408a92.813,92.813,0,0,0,12.516,47.055c-7.6,4.912-12.516,12.675-12.516,21.072a20.1,20.1,0,0,0,.633,5.387,6.733,6.733,0,0,0-1.742.317c-3.8.634-8.239,1.584-12.833,2.377-21.706,4.119-48.64,8.239-67.97,9.981-12.675,1.426-25.508.158-38.341.158-35.965,0-61.473-3.01-96.8-12.041-24.241-6.179-46.105-16.319-58.621-39.609-10.615-19.646-13.15-41.352-11.407-63.216C680.769,151,701.683,115.2,735.271,87.312c14.734-12.2,32.32-20.755,48.639-30.736a9.711,9.711,0,0,1,1.9-.792c4.118-1.743,8.079-.475,12.675,1.426,32.479,13.625,64.482,14.576,95.377-2.535,1.9-.951,3.645-2.06,5.546-3.169a11.018,11.018,0,0,1,6.971-1.267c2.535.951,5.07,1.9,7.446,3.01,5.388,2.06,10.773,4.278,15.844,6.813-.159,2.377-.316,4.911-.316,7.446,0,40.718,21.071,76.841,53.234,99.18A95.7,95.7,0,0,0,966.427,201.7,89.48,89.48,0,0,0,963.893,223.408Z" transform="translate(-676.303 79.534)" fill="#4e0011"/>
      <path id="Path_511" data-name="Path 511" d="M698.189,136.145c-.158.158-.316.475-.475.634v-1.743c0-30.895,6.179-58.463,16.16-76.207C718.628,85.763,714.667,112.222,698.189,136.145Z" transform="translate(-358.476 209.416)" fill="#4e0011"/>
      <path id="Path_512" data-name="Path 512" d="M758.464,169.152c-6.257-.7-14-1.458-21.736-2.44-16.4-2.091-27.948-9.3-33.366-26.459-5.007-15.891-12.786-30.895-19.313-46.295-4.42-10.425-2.551-22.466,9.347-23.258,6.307-.412,21.944,12.611,26.4,17.127,27.664,28.027,19.552-15.368,20.36-29.311.76-13.1,10.456-16.049,20.405-16.588,9.935-.555,15.337,6.528,17.856,14.83,6.955,22.941,13.007,29.406,27.25,8.4.491-.713,4.421-3.692,7.336-4.1,8.333-1.157,9.966.9,14.607,4.056,6.417,4.357,2.9,12.612-.222,18.965-9.648,19.63-16.667,39.8-16.319,62.2.064,4.072-4.1,9.665-7.89,12.089C790.151,166.68,775.132,168.328,758.464,169.152Z" transform="translate(-593.837 -41.898)" fill="#4e0011"/>
      <g id="Group_309" data-name="Group 309" transform="translate(139.215 174.515)">
        <path id="Path_513" data-name="Path 513" d="M763.373,212.822c0,6.116-1.869,10.314-5.641,12.627-2.709,1.664-7.034,2.5-12.944,2.5-.982,0-2.5-.047-4.595-.111H735.5v14.513H712.658V227.841h-4.706c-2.013.063-3.549.111-4.595.111q-8.769,0-12.834-2.5c-3.628-2.234-5.434-6.432-5.434-12.627V175.447H709.5v32.669h29.454v-31.83l-48.529-45.93a17.5,17.5,0,0,1-5.339-13.245V82.445q0-9.173,5.434-12.627,4.065-2.5,12.834-2.5c1.046,0,2.6.032,4.657.111,2.045.063,3.581.111,4.644.111V52.913H735.5V67.537c1.047,0,2.631-.047,4.754-.111,2.123-.079,3.708-.111,4.736-.111,5.863,0,10.125.84,12.851,2.5,3.675,2.234,5.529,6.369,5.529,12.421v35.284H738.958V87.563H709.5v28.708l48.229,45.5a17.235,17.235,0,0,1,5.641,13.261Z" transform="translate(-685.09 -52.913)" fill="#fff"/>
      </g>
    </g>
    <path id="Path_514" data-name="Path 514" d="M709.2,47.981v162.4a19.987,19.987,0,0,0-9.349,2.377V47.189A60.335,60.335,0,0,0,709.2,47.981Z" transform="translate(-270.688 73.062)" fill="#fff"/>
    <g id="Group_313" data-name="Group 313" transform="translate(229.301 27.408)">
      <path id="Path_515" data-name="Path 515" d="M704.726,55.8V71.166a1.725,1.725,0,0,0,.158-.792V55.639Z" transform="translate(-427.702 171.082)" fill="#bb8158"/>
      <path id="Path_516" data-name="Path 516" d="M771.627,55.7c.315,0,.315.158.475.158h1.268A6.49,6.49,0,0,1,771.627,55.7Zm19.8-2.852c.159,0,.316-.158.476-.158v-.158C791.747,52.687,791.59,52.687,791.431,52.846Zm-88.407,220.7a.155.155,0,0,1-.158.158h.317A.155.155,0,0,1,703.023,273.546Z" transform="translate(-455.31 124.918)" fill="#fff"/>
      <path id="Path_517" data-name="Path 517" d="M697.605,65.967a5.85,5.85,0,0,1,1.743.792v-3.01A11.938,11.938,0,0,1,697.605,65.967Z" transform="translate(-533.388 291.463)" fill="#fff"/>
      <path id="Path_518" data-name="Path 518" d="M777.013,242.905V118.534c11.725,9.823,20.438,22.181,24.4,36.123,4.595-3.8,11.725-6.5,19.8-6.5a32.141,32.141,0,0,1,17.269,4.753c-1.425-48.956-33.112-90.625-77.949-108.845A51.406,51.406,0,0,1,709.2,94.293a60.335,60.335,0,0,1-9.349-.792V259.066a19.987,19.987,0,0,1,9.349-2.377c9.981,0,19.013,7.446,26.3,20.121,10.3,17.745,17.111,45.788,17.111,77.316v4.753a36.047,36.047,0,0,1,18.7-4.753,38.005,38.005,0,0,1,20.28,5.545A95.557,95.557,0,0,0,785.252,255.9a86.837,86.837,0,0,0-8.714-10.14,2.459,2.459,0,0,0,.317-1.9C777.013,243.7,777.013,243.38,777.013,242.905Z" transform="translate(-499.989 -0.658)" fill="#8d2138"/>
      <g id="Group_312" data-name="Group 312" transform="translate(0 8.73)">
        <g id="Group_311" data-name="Group 311" transform="translate(79.773 34.681)">
          <g transform="matrix(1, 0, 0, 1, -302.69, -60.96)" filter="url(#Path_519)">
            <path id="Path_519-2" data-name="Path 519" d="M770.542,44.069a125.021,125.021,0,0,0-31.212,18.22,118.054,118.054,0,0,0-20.121,19.646,120.235,120.235,0,0,0-11.09,16,130.635,130.635,0,0,0-9.823,21.389,130.7,130.7,0,0,0-5.546,26.459c0,1.109-.158,2.218-.158,3.486-.159,2.377-.316,4.911-.316,7.446,0,40.718,21.071,76.841,53.234,99.18a95.7,95.7,0,0,0-16.161,35.014,89.48,89.48,0,0,0-2.534,21.706,92.813,92.813,0,0,0,12.516,47.055,38.668,38.668,0,0,1,20.122-5.545,43,43,0,0,1,9.188.951,29.547,29.547,0,0,1,3.485,1.109,19.965,19.965,0,0,1,4.595,1.9,11.938,11.938,0,0,0,1.743-2.218v-1.743c0-30.895,6.179-58.463,16.16-76.207a6.891,6.891,0,0,1,.634-1.109c4.912-8.555,10.773-14.734,17.11-17.745V93.5A51.5,51.5,0,0,1,770.542,44.069ZM753.748,227.378c-16.636-14.1-26.934-33.113-26.934-54.343a30.572,30.572,0,0,1,.158-3.8c1.108-19.646,11.09-37.391,26.775-50.7Z" transform="translate(-389.59 16.89)" fill="#8d2138"/>
          </g>
        </g>
      </g>
      <path id="Path_520" data-name="Path 520" d="M759.89,90.256c0,7.13-3.486,13.625-9.031,18.378a.155.155,0,0,0-.158.158,36.46,36.46,0,0,1-23.606,8.239c-15.844,0-28.994-9.189-32-21.389a20.1,20.1,0,0,1-.633-5.387c0-8.4,4.911-16.16,12.516-21.072a38.668,38.668,0,0,1,20.122-5.545,43,43,0,0,1,9.188.951,29.547,29.547,0,0,1,3.485,1.109,19.965,19.965,0,0,1,4.595,1.9,5.85,5.85,0,0,1,1.743.792C754.5,73.3,759.89,81.225,759.89,90.256Z" transform="translate(-580.145 289.83)" fill="#645c57"/>
      <path id="Path_521" data-name="Path 521" d="M767.581,90.256c0,14.734-14.576,26.776-32.638,26.776a36.02,36.02,0,0,1-23.448-8.239.155.155,0,0,1-.159-.158,23.818,23.818,0,0,1-9.03-18.378c0-9.031,5.387-16.953,13.942-21.864a36.047,36.047,0,0,1,18.7-4.753,38.005,38.005,0,0,1,20.28,5.545C762.828,74.1,767.581,81.859,767.581,90.256Z" transform="translate(-463.623 289.83)" fill="#645c57"/>
      <path id="Path_522" data-name="Path 522" d="M756.615,67.433c0,4.119-2.376,7.763-6.021,10.615h-.158a22.643,22.643,0,0,1-3.8,2.535c-.159.158-.316.158-.476.317a3.311,3.311,0,0,0-.95.634l-1.9.475a5.348,5.348,0,0,1-1.9.634c-.476.158-.951.317-1.585.475a9.7,9.7,0,0,0-2.06.475c-.316,0-.316,0-.475.158h-.158c-1.743.158-3.644.317-5.546.317-.158-.158-.158,0-.316,0h-.317a9.741,9.741,0,0,1-2.218-.158,11.985,11.985,0,0,1-2.376-.158,7.813,7.813,0,0,1-2.377-.475,13.176,13.176,0,0,1-2.061-.317.552.552,0,0,0-.315-.158c-.635-.158-1.109-.158-1.585-.317a1.713,1.713,0,0,0-1.109-.475c-.316-.158-.95-.317-1.267-.475a9.433,9.433,0,0,0-1.268-.634s-.159-.158-.159,0c-.158-.158-.317-.158-.476-.317A17.306,17.306,0,0,1,714,79.633c-5.07-3.01-8.081-7.288-8.081-12.2,0-3.961,2.06-7.6,5.546-10.3,4.595-3.8,11.725-6.5,19.8-6.5a32.141,32.141,0,0,1,17.269,4.753h.159C753.6,58.4,756.615,62.68,756.615,67.433Z" transform="translate(-410.038 96.864)" fill="#e6c8b6"/>
      <path id="Path_523" data-name="Path 523" d="M763.94,83.532V284.776H753.309V80.664a18.118,18.118,0,0,0-20.5-17.919C723.745,63.949,717.17,72,717.17,81.14v29.215a31.455,31.455,0,0,1-7.51-9.76,35.505,35.505,0,0,1-3.739-15.97c0-18,12.992-32.574,29.01-32.574.634,0,1.235.032,1.837.079,10.062.7,18.728,7.161,23.433,16.477A35.2,35.2,0,0,1,763.94,83.532Z" transform="translate(-409.948 117.823)" fill="#ac6e49"/>
      <path id="Path_524" data-name="Path 524" d="M782.7,83.79a42.468,42.468,0,1,1-84.937,0c0-.76.032-1.537.079-2.3a42.451,42.451,0,0,1,84.778,0C782.686,82.253,782.7,83.029,782.7,83.79Z" transform="translate(-531.011 -41.329)" fill="#8d2138"/>
    </g>
  </g>
</svg>
