<svg xmlns="http://www.w3.org/2000/svg" xmlns:xlink="http://www.w3.org/1999/xlink" width="48" height="48" viewBox="0 0 48 48">
  <defs>
    <clipPath id="clip-path">
      <rect width="48" height="48" fill="none"/>
    </clipPath>
  </defs>
  <g id="Client_Admin_Icon" data-name="Client Admin Icon" clip-path="url(#clip-path)">
    <circle id="Ellipse_83" data-name="Ellipse 83" cx="24" cy="24" r="24" fill="#2f9036"/>
    <g id="Group_286" data-name="Group 286" transform="translate(-327.923 -293.404)">
      <circle id="Ellipse_84" data-name="Ellipse 84" cx="8.049" cy="8.049" r="8.049" transform="translate(343.476 302.255)" fill="#fff" stroke="#2e9036" stroke-miterlimit="10" stroke-width="1"/>
      <path id="Path_431" data-name="Path 431" d="M349.8,331.167l2.125,3.605H340.858c-1.932,0-3.5-.96-3.5-2.147V321.234c0-2.351,3.119-4.261,6.972-4.261l6.077,4.068-1.33,8.894Z" fill="#fff" stroke="#2e9036" stroke-miterlimit="10" stroke-width="1"/>
      <path id="Path_432" data-name="Path 432" d="M366.5,321.222v11.4c0,1.187-1.571,2.147-3.5,2.147H351.922l2.136-3.752.621-1.085-1.3-8.894h0l6.159-4.068a9.641,9.641,0,0,1,4.927,1.243A3.688,3.688,0,0,1,366.5,321.222Z" fill="#fff" stroke="#2e9036" stroke-miterlimit="10" stroke-width="1"/>
    </g>
  </g>
</svg>
