<svg xmlns="http://www.w3.org/2000/svg" width="401.256" height="447.68" viewBox="0 0 401.256 447.68">
  <g id="Group_582" data-name="Group 582" transform="translate(-337.355 -302.256)">
    <circle id="Ellipse_84" data-name="Ellipse 84" cx="110.82" cy="110.82" r="110.82" transform="translate(421.628 302.255)" fill="#2e9036"/>
    <path id="Path_431" data-name="Path 431" d="M508.651,512.39l29.256,49.632H385.583c-26.6,0-48.228-13.217-48.228-29.559V375.637c0-32.368,42.941-58.664,95.987-58.664l83.666,56.006L498.7,495.428Z" transform="translate(0 187.913)" fill="#2e9036"/>
    <path id="Path_432" data-name="Path 432" d="M552.626,375.471V532.463c0,16.342-21.629,29.559-48.228,29.559H351.922l29.408-51.656,8.549-14.938L372,372.979h0l84.794-56.006c26.448,0,50.4,6.54,67.833,17.113C541.887,344.673,552.626,359.295,552.626,375.471Z" transform="translate(185.985 187.913)" fill="#2e9036"/>
  </g>
</svg>
