<svg xmlns="http://www.w3.org/2000/svg" width="49.426" height="53.461" viewBox="0 0 49.426 53.461">
  <g id="Status_icon" data-name="Status icon" transform="translate(0.022 0.042)">
    <g id="Layer_1" data-name="Layer 1" transform="translate(-0.004 -0.008)">
      <g id="Group_553" data-name="Group 553">
        <path id="Path_1077" data-name="Path 1077" d="M48.71,2.968a2.8,2.8,0,0,1,3.3,3.062q0,16.732-.062,33.464A3.9,3.9,0,0,1,48.6,43.446l-3.26.458L36.254,45.18l-.24.031-.6.089c.1.906.135,1.729.3,2.5a2.015,2.015,0,0,0,2.224,1.51c.979-.141,1.484.1,1.666.771a1.651,1.651,0,0,1-1.375,2.047l-3.718.521-3.307.463L19.183,54.8c-.932.13-1.489-.323-1.495-1.2a1.562,1.562,0,0,1,1.229-1.614,4.114,4.114,0,0,0,1.182-.3,3.041,3.041,0,0,0,1.682-2.75c0-.521.062-1.1.1-1.718a2.141,2.141,0,0,0-.568.047l-3.828.521-2.911.437-5.28.739a6.458,6.458,0,0,1-1.562.078A2.766,2.766,0,0,1,5.43,46.1q.031-16.732.062-33.459A3.876,3.876,0,0,1,8.841,8.581L44.815,3.515Zm.635,29.48v-.562l.047-25.272c0-.708-.109-.812-.76-.719l-4.489.625-2.6.365L9.018,11.446c-.833.115-.906.208-.911,1.114q0,10.415-.042,20.83v4.843l41.28-5.786m-.036,7.322V35.463l-41.259,5.8V45.2c0,.979.073,1.042.963.917L41.82,41.509l3.744-.521,3-.417c.453-.062.755-.255.755-.8M32.806,49.8V48.008l-8.3,1.161v1.8l8.3-1.166" transform="translate(-2.6 -1.401)" fill="#fff"/>
        <path id="Path_1158" data-name="Path 1158" d="M46.619,1.543,5.777,7.295S2.969,7.778,2.9,11.328s0,34.158,0,34.158a3.13,3.13,0,0,0,1.223,1.807,32.351,32.351,0,0,1-3.019-1.678s-1.144-.332-1.128-2.969,0-33.639,0-33.639.5-2.816,2.867-3.242S43.453.014,43.453.014a2.2,2.2,0,0,1,1.571.252c.884.467,3.02,1.619,3.02,1.619a5.847,5.847,0,0,0-.97-.277C46.739,1.568,46.619,1.543,46.619,1.543Z" fill="#f7b4b4"/>
      </g>
      <g id="Group_572" data-name="Group 572" transform="translate(11.035 7.898)">
        <path id="Path_1161" data-name="Path 1161" d="M26.479,20.15a1.894,1.894,0,0,1,.808-.227c.46-.02.91,0,.91,0l3.842-6.762s.163-.187.067-.3-.478-.846-.478-.846a3.061,3.061,0,0,1-.158-1.293,5.3,5.3,0,0,1,.447-1.344,3.385,3.385,0,0,1,1.292-1.2,2.52,2.52,0,0,1,2.518.088c1.2.639,2.375,1.287,2.375,1.287a3.365,3.365,0,0,0-2.973.764,3.4,3.4,0,0,0-.872,2.455,2.057,2.057,0,0,0,.328,1c.317.469.419.574.277.846s-3.872,6.852-3.872,6.852a6.946,6.946,0,0,0-1.428.09c-.395.119-.786.7-1.252.3S26.479,20.15,26.479,20.15Z" transform="translate(-11.035 -7.898)" fill="#f7b4b4"/>
        <path id="Path_1160" data-name="Path 1160" d="M23.9,20.391,24.917,21.6a4.207,4.207,0,0,0-.32.99,2.914,2.914,0,0,0,.1,1.152,2.247,2.247,0,0,0,.829,1.311c.413.295,2.892,1.582,2.892,1.582a2.485,2.485,0,0,1-.961-2.229c.093-1.547,0-.266,0-.266l.1-.465.121-.357a.527.527,0,0,0-.121-.549c-.244-.268-2.958-2.811-2.958-2.811Z" transform="translate(-11.035 -7.898)" fill="#f7b4b4"/>
        <path id="Path_1138" data-name="Path 1138" d="M49.563,18.075l.266-.026a1.984,1.984,0,0,1,2.114,1.4,3.078,3.078,0,0,1-.448,2.9,2.864,2.864,0,0,1-1.922,1.286,2.7,2.7,0,0,1-.583,0,.958.958,0,0,0-.245,0,.521.521,0,0,0-.4.312c-1.219,2.166-2.453,4.322-3.677,6.478a2.083,2.083,0,0,0-.1.24,2.645,2.645,0,0,1,.588,2.6,3.125,3.125,0,0,1-2.442,2.349,2.369,2.369,0,0,1-.854-.042c-1.4-.323-2.026-1.932-1.463-3.494a.734.734,0,0,0,0-.6c-.937-.917-1.9-1.807-2.854-2.7l-.214-.167a3.083,3.083,0,0,1-1.411.641,2.239,2.239,0,0,1-1.156-.146.25.25,0,0,0-.109,0,.594.594,0,0,0-.338.177c-.943,1.13-1.875,2.265-2.781,3.427a.729.729,0,0,0-.052.6,3.192,3.192,0,0,1-1.437,3.947,2.656,2.656,0,0,1-.89.3,2.172,2.172,0,0,1-2.432-1.687,2.958,2.958,0,0,1,.771-2.885,2.734,2.734,0,0,1,1.625-.953,2.083,2.083,0,0,1,1.042.109.781.781,0,0,0,.354.057.792.792,0,0,0,.479-.354c.943-1.177,1.906-2.338,2.854-3.489a3.187,3.187,0,0,1,.521-3.7,2.843,2.843,0,0,1,1.6-.911,2.187,2.187,0,0,1,1.521.333,2.552,2.552,0,0,1,.781,3.13.614.614,0,0,0,.151.828c.9.8,1.755,1.651,2.645,2.458a.568.568,0,0,0,.4.125.2.2,0,0,0,.083-.031,2.828,2.828,0,0,1,1.2-.474,3.78,3.78,0,0,1,.969,0c1.3-2.291,2.567-4.546,3.848-6.77.187-.323.036-.448-.1-.646a2.765,2.765,0,0,1-.1-2.942,2.828,2.828,0,0,1,2.192-1.682Z" transform="translate(-23.789 -16.538)" fill="#fff"/>
        <path id="Path_1159" data-name="Path 1159" d="M14.75,28.5l-2.725-1.486a2.772,2.772,0,0,1-.961-2.623A3.123,3.123,0,0,1,12.969,22a2.08,2.08,0,0,1,1.4-.094c.682.238.961-.148.961-.148L18.24,18.2a4.58,4.58,0,0,1-.341-1.969,2.864,2.864,0,0,1,.848-1.795,2.55,2.55,0,0,1,2.852-.73c.577.293,2.976,1.623,2.976,1.623a2.822,2.822,0,0,0-2.976.715c-1.488,1.377-.46,3.619-.46,3.619l-3.027,3.693s-.177.336-.734.148a1.867,1.867,0,0,0-1.287,0,2.871,2.871,0,0,0-1.509,1.059,4.548,4.548,0,0,0-.615,2.357,2.113,2.113,0,0,0,.474,1.242C14.715,28.5,14.75,28.5,14.75,28.5Z" transform="translate(-11.035 -7.898)" fill="#f7b4b4"/>
      </g>
      <g id="Group_579" data-name="Group 579" transform="translate(22.831 37.615)">
        <path id="Path_1152" data-name="Path 1152" d="M49.5,74.7h0a.963.963,0,0,1,1.088,1.042,1.333,1.333,0,0,1-1.109,1.333.963.963,0,0,1-1.1-1.042A1.354,1.354,0,0,1,49.5,74.7Z" transform="translate(-46.011 -73.407)" fill="#fff"/>
        <path id="Path_1162" data-name="Path 1162" d="M26.9,39.008c-.135-.084-2.456-1.324-2.456-1.324s-.7-.4-1.385.582A1.053,1.053,0,0,0,23.2,39.82l2.481,1.35a6.431,6.431,0,0,1-.437-.559,1.12,1.12,0,0,1,.172-1.027c.235-.285.327-.395.327-.395a1.382,1.382,0,0,1,.636-.281A1.73,1.73,0,0,1,26.9,39.008Z" transform="translate(-22.831 -37.615)" fill="#f7b4b4"/>
      </g>
    </g>
  </g>
</svg>
