<svg xmlns="http://www.w3.org/2000/svg" width="41.424" height="50.115" viewBox="0 0 41.424 50.115">
  <g id="Company_Icon" data-name="Company Icon" transform="translate(6.962 0.04)">
    <g id="Layer_1" data-name="Layer 1" transform="translate(-7.002 -0.023)">
      <g id="Group_456" data-name="Group 456">
        <path id="Path_893" data-name="Path 893" d="M34,7.985a1,1,0,0,1,1.134,1.063l-.064,38.911a1.4,1.4,0,0,1-1.134,1.381L15.756,51.894a1,1,0,0,1-1.13-1.062L14.7,11.909a1.4,1.4,0,0,1,1.134-1.381Z" transform="translate(-8.803 -4.793)" fill="#fff"/>
        <path id="Path_1157" data-name="Path 1157" d="M19.351,0,1.066,2.588A1.557,1.557,0,0,0,.1,3.893c.01.9-.059,39.238-.059,39.238s-.037.262.381.627,5.833,3.215,5.833,3.215a1.2,1.2,0,0,1-.436-.785c-.033-.477.128-39.211.088-39.32a1.465,1.465,0,0,1,1.165-1.15c.852-.129,18.279-2.529,18.279-2.529a1.263,1.263,0,0,1,.37.084C25.9,3.346,19.979.125,19.979.125A.907.907,0,0,0,19.671,0,.714.714,0,0,0,19.351,0Z" fill="#809cfd"/>
      </g>
      <g id="Group_500" data-name="Group 500" transform="translate(10.995 10.607)">
        <path id="Path_980" data-name="Path 980" d="M65.834,34.588a.9.9,0,0,1,1.019.955l-.076,30.928a1.269,1.269,0,0,1-1.023,1.246L43.2,70.9a.9.9,0,0,1-1.019-.959l.06-30.924a1.265,1.265,0,0,1,1.023-1.246Zm-2.169,18.25V50.052a.6.6,0,0,0-.676-.637L46.053,51.8a.844.844,0,0,0-.676.852v2.786a.6.6,0,0,0,.676.641l16.936-2.388a.844.844,0,0,0,.68-.832m0,5.388V55.441a.6.6,0,0,0-.676-.641L46.057,57.188a.844.844,0,0,0-.68.832V60.8a.6.6,0,0,0,.68.637l16.936-2.388a.844.844,0,0,0,.665-.828m.028-16.156V39.284a.6.6,0,0,0-.68-.641l-16.92,2.392a.848.848,0,0,0-.68.832v2.786a.6.6,0,0,0,.68.629l16.936-2.388a.848.848,0,0,0,.68-.832m0,5.384V44.7a.6.6,0,0,0-.676-.637l-16.94,2.364a.844.844,0,0,0-.68.828v2.786a.6.6,0,0,0,.657.629L63,48.278a.852.852,0,0,0,.68-.832" transform="translate(-36.386 -31.417)" fill="#fff"/>
        <path id="Path_1156" data-name="Path 1156" d="M30.032,3.282,24.175.106s-.1-.162-.758-.072S1.253,3.143,1.253,3.143.123,3.12.085,4.958.059,35.348.059,35.348a.809.809,0,0,0,.254.775C.674,36.372,6.1,39.3,6.1,39.3a1.791,1.791,0,0,1-.3-.553c-.069-.27.07-31.064.07-31.064s-.046-1.193.868-1.324,22.77-3.172,22.77-3.172Z" fill="#809cfd"/>
      </g>
      <g id="Group_501" data-name="Group 501" transform="translate(20.016 17.772)">
        <path id="Path_981" data-name="Path 981" d="M67.914,44.642a.6.6,0,0,1,.676.641v2.786a.84.84,0,0,1-.68.828L50.974,51.268a.6.6,0,0,1-.677-.641V47.842a.844.844,0,0,1,.677-.82Z" transform="translate(-50.296 -44.637)" fill="#809cfd"/>
      </g>
      <g id="Group_502" data-name="Group 502" transform="translate(19.992 23.125)">
        <path id="Path_982" data-name="Path 982" d="M67.854,58.093a.6.6,0,0,1,.68.637v2.786a.852.852,0,0,1-.68.832L50.918,64.734a.6.6,0,0,1-.68-.641V61.308a.844.844,0,0,1,.7-.836Z" transform="translate(-50.236 -58.088)" fill="#809cfd"/>
      </g>
      <g id="Group_503" data-name="Group 503" transform="translate(19.988 28.611)">
        <path id="Path_983" data-name="Path 983" d="M67.844,71.882a.6.6,0,0,1,.676.637V75.3a.844.844,0,0,1-.68.832L50.9,78.523a.6.6,0,0,1-.677-.641V75.109a.844.844,0,0,1,.68-.828Z" transform="translate(-50.226 -71.876)" fill="#809cfd"/>
      </g>
      <g id="Group_504" data-name="Group 504" transform="translate(19.972 33.996)">
        <path id="Path_984" data-name="Path 984" d="M67.808,85.412a.6.6,0,0,1,.677.637v2.786a.848.848,0,0,1-.68.832L50.868,92.054a.6.6,0,0,1-.68-.641V88.628a.844.844,0,0,1,.68-.828Z" transform="translate(-50.186 -85.408)" fill="#809cfd"/>
      </g>
      <g id="Group_505" data-name="Group 505" transform="translate(25.21 42.485)">
        <path id="Path_985" data-name="Path 985" d="M71.862,106.748c.187-.068.342.294.338.8v3.494c0,.513-.155.983-.342,1.051l-8.17,1.15c-.187.068-.338-.291-.338-.8v-3.5c0-.509.155-.979.342-1.047Z" transform="translate(-63.35 -106.74)" fill="#809cfd"/>
      </g>
    </g>
  </g>
</svg>
