<svg xmlns="http://www.w3.org/2000/svg" width="57.803" height="49.889" viewBox="0 0 57.803 49.889">
  <g id="Member_Icon" data-name="Member Icon" transform="translate(-0.489 -0.017)">
    <g id="Layer_1" data-name="Layer 1" transform="translate(-0.002 0.015)">
      <g id="Group_515" data-name="Group 515" transform="translate(0 26.787)">
        <path id="Path_1154" data-name="Path 1154" d="M19.975,31.181c.459,1,4.458,4.316,4.458,4.316s1.592,2,6.971,1.412,6.4-1.684,7.335-2.715a5.789,5.789,0,0,0,1.223-2.344l5.972-.459s6.955,1.135,8.574,2.545-4.269-4.277-4.269-4.277-2.688-3.076-8.5-2.867-6.381.506-6.381.506a6.064,6.064,0,0,1-4.632,4.439,17.92,17.92,0,0,1-9.02.26C20.113,31.554,19.516,30.183,19.975,31.181Z" transform="translate(0.002 -26.803)" fill="#ffe888"/>
        <path id="Path_1014" data-name="Path 1014" d="M50.964,62.95a10.891,10.891,0,0,1,11.93,11.03,4.1,4.1,0,0,1-3.728,3.977l-46.3,3.559A3.385,3.385,0,0,1,9.15,78.09a13.158,13.158,0,0,1,12-12.864l6.462-.5c1.064,3.579,4.444,4.056,8.45,3.748s7.387-1.3,8.455-5.03Z" transform="translate(-4.601 -58.429)" fill="#fff"/>
        <path id="Path_1153" data-name="Path 1153" d="M-13095.564-24635.727c-.025,0-3.837-1.059-4.789-6.539a10.45,10.45,0,0,1,2.826-8.99,15.049,15.049,0,0,1,5.61-3.59c3.181-1.008,9.389-1.1,9.389-1.1l4.577,4.531a83.413,83.413,0,0,0-9.479,1.2c-3.242.752-7.227,4.51-8.447,8.59S-13095.539-24635.725-13095.564-24635.727Z" transform="translate(13100.999 24657.734)" fill="#ffe888"/>
      </g>
      <g id="Group_522" data-name="Group 522" transform="translate(16.036)">
        <path id="Path_1029" data-name="Path 1029" d="M52.32,9.053a9.877,9.877,0,0,1,10.831,10A11.93,11.93,0,0,1,52.28,30.73,9.887,9.887,0,0,1,41.439,20.724,11.93,11.93,0,0,1,52.32,9.053Z" transform="translate(-36.875 -4.537)" fill="#fff"/>
        <path id="Path_1155" data-name="Path 1155" d="M22.705,6.752s-5.628-5.246-13.867.477A13.411,13.411,0,0,0,4.764,14.35a10.966,10.966,0,0,0,1.521,7.533c.06-.061-5.684-3.289-6.3-9.295A10.829,10.829,0,0,1,3.645,3.271,12.225,12.225,0,0,1,11.441,0a10.445,10.445,0,0,1,7.3,2.689Z" fill="#ffe888"/>
      </g>
    </g>
  </g>
</svg>
