<svg xmlns="http://www.w3.org/2000/svg" xmlns:xlink="http://www.w3.org/1999/xlink" width="139.645" height="139.645" viewBox="0 0 139.645 139.645">
  <defs>
    <clipPath id="clip-path">
      <rect width="139.645" height="139.645" fill="none"/>
    </clipPath>
  </defs>
  <g id="Icon_Delete" data-name="Icon Delete" clip-path="url(#clip-path)">
    <ellipse id="Ellipse_61" data-name="Ellipse 61" cx="69.822" cy="69.822" rx="69.822" ry="69.822" fill="#f97b44"/>
    <g id="tutup" transform="translate(1753 -5331)">
      <path id="Rectangle_176" data-name="Rectangle 176" d="M2,0H48.965a2,2,0,0,1,2,2V6.965a0,0,0,0,1,0,0H0a0,0,0,0,1,0,0V2A2,2,0,0,1,2,0Z" transform="translate(-1709 5378)" fill="#fff"/>
      <path id="Rectangle_177" data-name="Rectangle 177" d="M2,0H18.965a2,2,0,0,1,2,2V4.965a0,0,0,0,1,0,0H0a0,0,0,0,1,0,0V2A2,2,0,0,1,2,0Z" transform="translate(-1694 5371)" fill="#fff"/>
    </g>
    <g id="tong" transform="translate(1753 -5331)">
      <path id="Rectangle_172" data-name="Rectangle 172" d="M0,0H50.965a0,0,0,0,1,0,0V52.965a6,6,0,0,1-6,6H6a6,6,0,0,1-6-6V0A0,0,0,0,1,0,0Z" transform="translate(-1709 5391)" fill="#fff"/>
      <rect id="Rectangle_175" data-name="Rectangle 175" width="43.579" height="3.57" rx="1.785" transform="translate(-1696.924 5399) rotate(90)" fill="#ffa882"/>
      <rect id="Rectangle_178" data-name="Rectangle 178" width="34.36" height="3.57" rx="1.785" transform="translate(-1680.924 5403) rotate(90)" fill="#ffa882"/>
      <rect id="Rectangle_179" data-name="Rectangle 179" width="43.579" height="3.57" rx="1.785" transform="translate(-1664.924 5399) rotate(90)" fill="#ffa882"/>
    </g>
  </g>
</svg>
