<svg xmlns="http://www.w3.org/2000/svg" xmlns:xlink="http://www.w3.org/1999/xlink" width="26.596" height="26.596" viewBox="0 0 26.596 26.596">
  <defs>
    <clipPath id="clip-path">
      <rect width="26.596" height="26.596" fill="none"/>
    </clipPath>
  </defs>
  <g id="Icon_Delete" data-name="Icon Delete" transform="translate(-0.001 0)" clip-path="url(#clip-path)">
    <ellipse id="Ellipse_61" data-name="Ellipse 61" cx="13.298" cy="13.298" rx="13.298" ry="13.298" fill="#ffa882"/>
    <g id="tutup" transform="translate(8.38 5.618)">
      <path id="Rectangle_176" data-name="Rectangle 176" d="M1,0H8.706a1,1,0,0,1,1,1v.327a0,0,0,0,1,0,0H0a0,0,0,0,1,0,0V1A1,1,0,0,1,1,0Z" transform="translate(0 1.333)" fill="#fff"/>
      <path id="Rectangle_177" data-name="Rectangle 177" d="M.946,0h2.1a.946.946,0,0,1,.946.946v0a0,0,0,0,1,0,0H0a0,0,0,0,1,0,0v0A.946.946,0,0,1,.946,0Z" transform="translate(2.857)" fill="#fff"/>
    </g>
    <g id="tong" transform="translate(8.38 9.427)">
      <path id="Rectangle_172" data-name="Rectangle 172" d="M0,0H9.706a0,0,0,0,1,0,0V10.23a1,1,0,0,1-1,1H1a1,1,0,0,1-1-1V0A0,0,0,0,1,0,0Z" fill="#fff"/>
      <rect id="Rectangle_175" data-name="Rectangle 175" width="8.3" height="0.68" rx="0.34" transform="translate(2.3 1.524) rotate(90)" fill="#ffa882"/>
      <rect id="Rectangle_178" data-name="Rectangle 178" width="6.544" height="0.68" rx="0.34" transform="translate(5.347 2.285) rotate(90)" fill="#ffa882"/>
      <rect id="Rectangle_179" data-name="Rectangle 179" width="8.3" height="0.68" rx="0.34" transform="translate(8.394 1.524) rotate(90)" fill="#ffa882"/>
    </g>
  </g>
</svg>
