<svg xmlns="http://www.w3.org/2000/svg" xmlns:xlink="http://www.w3.org/1999/xlink" width="48" height="48" viewBox="0 0 48 48">
  <defs>
    <clipPath id="clip-path">
      <rect width="48" height="48" fill="none"/>
    </clipPath>
  </defs>
  <g id="DPLK_Configuration_icon" data-name="DPLK Configuration icon" clip-path="url(#clip-path)">
    <circle id="Ellipse_1" data-name="Ellipse 1" cx="24" cy="24" r="24" fill="#a6edff"/>
    <g id="Group_26" data-name="Group 26" transform="translate(-52 -421)">
      <g id="Rectangle_8" data-name="Rectangle 8" transform="translate(63 440.714)" fill="none" stroke="#fff" stroke-width="1">
        <path d="M4,0H8.476a0,0,0,0,1,0,0V18.987a0,0,0,0,1,0,0H4a4,4,0,0,1-4-4V4A4,4,0,0,1,4,0Z" stroke="none"/>
        <path d="M4,.5H7.476a.5.5,0,0,1,.5.5V17.987a.5.5,0,0,1-.5.5H4a3.5,3.5,0,0,1-3.5-3.5V4A3.5,3.5,0,0,1,4,.5Z" fill="none"/>
      </g>
      <g id="Rectangle_9" data-name="Rectangle 9" transform="translate(71.137 428.847)" fill="none" stroke="#fff" stroke-width="1">
        <path d="M0,0H7.6a8,8,0,0,1,8,8V22.854a8,8,0,0,1-8,8H0a0,0,0,0,1,0,0V0A0,0,0,0,1,0,0Z" stroke="none"/>
        <path d="M1,.5H7.6A7.5,7.5,0,0,1,15.1,8V22.854a7.5,7.5,0,0,1-7.5,7.5H1a.5.5,0,0,1-.5-.5V1A.5.5,0,0,1,1,.5Z" fill="none"/>
      </g>
      <g id="Rectangle_11" data-name="Rectangle 11" transform="translate(65.712 443.748)" fill="none" stroke="#fff" stroke-width="1">
        <path d="M1.7,0h0a1.7,1.7,0,0,1,1.7,1.7V4.069a0,0,0,0,1,0,0H0a0,0,0,0,1,0,0V1.7A1.7,1.7,0,0,1,1.7,0Z" stroke="none"/>
        <path d="M1.7.5h0a1.2,1.2,0,0,1,1.2,1.2V3.33a.239.239,0,0,1-.239.239H.739A.239.239,0,0,1,.5,3.33V1.7A1.2,1.2,0,0,1,1.7.5Z" fill="none"/>
      </g>
      <g id="Rectangle_11-2" data-name="Rectangle 11" transform="translate(65.712 450.172)" fill="none" stroke="#fff" stroke-width="1">
        <path d="M1.7,0h0a1.7,1.7,0,0,1,1.7,1.7V4.069a0,0,0,0,1,0,0H0a0,0,0,0,1,0,0V1.7A1.7,1.7,0,0,1,1.7,0Z" stroke="none"/>
        <path d="M1.7.5h0a1.2,1.2,0,0,1,1.2,1.2V3.33a.239.239,0,0,1-.239.239H.739A.239.239,0,0,1,.5,3.33V1.7A1.2,1.2,0,0,1,1.7.5Z" fill="none"/>
      </g>
      <g id="Group_8" data-name="Group 8" transform="translate(74.189 436.984)">
        <g id="Rectangle_10" data-name="Rectangle 10" transform="translate(6.103)" fill="none" stroke="#fff" stroke-width="1">
          <path d="M1.7,0h0a1.7,1.7,0,0,1,1.7,1.7V4.069a0,0,0,0,1,0,0H0a0,0,0,0,1,0,0V1.7A1.7,1.7,0,0,1,1.7,0Z" stroke="none"/>
          <path d="M1.7.5h0a1.2,1.2,0,0,1,1.2,1.2V3.33a.239.239,0,0,1-.239.239H.739A.239.239,0,0,1,.5,3.33V1.7A1.2,1.2,0,0,1,1.7.5Z" fill="none"/>
        </g>
        <g id="Rectangle_12" data-name="Rectangle 12" fill="none" stroke="#fff" stroke-width="1">
          <path d="M1.7,0h0a1.7,1.7,0,0,1,1.7,1.7V4.069a0,0,0,0,1,0,0H0a0,0,0,0,1,0,0V1.7A1.7,1.7,0,0,1,1.7,0Z" stroke="none"/>
          <path d="M1.7.5h0a1.2,1.2,0,0,1,1.2,1.2V3.33a.239.239,0,0,1-.239.239H.739A.239.239,0,0,1,.5,3.33V1.7A1.2,1.2,0,0,1,1.7.5Z" fill="none"/>
        </g>
      </g>
      <g id="Group_10" data-name="Group 10" transform="translate(74.189 443.75)">
        <g id="Rectangle_10-2" data-name="Rectangle 10" transform="translate(6.103)" fill="none" stroke="#fff" stroke-width="1">
          <path d="M1.7,0h0a1.7,1.7,0,0,1,1.7,1.7V4.069a0,0,0,0,1,0,0H0a0,0,0,0,1,0,0V1.7A1.7,1.7,0,0,1,1.7,0Z" stroke="none"/>
          <path d="M1.7.5h0a1.2,1.2,0,0,1,1.2,1.2V3.33a.239.239,0,0,1-.239.239H.739A.239.239,0,0,1,.5,3.33V1.7A1.2,1.2,0,0,1,1.7.5Z" fill="none"/>
        </g>
        <g id="Rectangle_12-2" data-name="Rectangle 12" fill="none" stroke="#fff" stroke-width="1">
          <path d="M1.7,0h0a1.7,1.7,0,0,1,1.7,1.7V4.069a0,0,0,0,1,0,0H0a0,0,0,0,1,0,0V1.7A1.7,1.7,0,0,1,1.7,0Z" stroke="none"/>
          <path d="M1.7.5h0a1.2,1.2,0,0,1,1.2,1.2V3.33a.239.239,0,0,1-.239.239H.739A.239.239,0,0,1,.5,3.33V1.7A1.2,1.2,0,0,1,1.7.5Z" fill="none"/>
        </g>
      </g>
      <g id="Group_9" data-name="Group 9" transform="translate(74.189 450.152)">
        <g id="Rectangle_10-3" data-name="Rectangle 10" transform="translate(6.103 0)" fill="none" stroke="#fff" stroke-width="1">
          <path d="M1.7,0h0a1.7,1.7,0,0,1,1.7,1.7V4.069a0,0,0,0,1,0,0H0a0,0,0,0,1,0,0V1.7A1.7,1.7,0,0,1,1.7,0Z" stroke="none"/>
          <path d="M1.7.5h0a1.2,1.2,0,0,1,1.2,1.2V3.33a.239.239,0,0,1-.239.239H.739A.239.239,0,0,1,.5,3.33V1.7A1.2,1.2,0,0,1,1.7.5Z" fill="none"/>
        </g>
        <g id="Rectangle_12-3" data-name="Rectangle 12" transform="translate(0 0)" fill="none" stroke="#fff" stroke-width="1">
          <path d="M1.7,0h0a1.7,1.7,0,0,1,1.7,1.7V4.069a0,0,0,0,1,0,0H0a0,0,0,0,1,0,0V1.7A1.7,1.7,0,0,1,1.7,0Z" stroke="none"/>
          <path d="M1.7.5h0a1.2,1.2,0,0,1,1.2,1.2V3.33a.239.239,0,0,1-.239.239H.739A.239.239,0,0,1,.5,3.33V1.7A1.2,1.2,0,0,1,1.7.5Z" fill="none"/>
        </g>
      </g>
    </g>
  </g>
</svg>
