<svg xmlns="http://www.w3.org/2000/svg" width="48" height="48"><defs><clipPath id="a"><path d="M0 0h48v48H0z"/></clipPath></defs><g data-name="DPLK Configuration icon" clip-path="url(#a)"><circle data-name="Ellipse 1" cx="24" cy="24" r="24"/><g data-name="Group 26" stroke="#fff"><g data-name="Rectangle 8"><path d="M15 19.714h4.476v18.987H15a4 4 0 0 1-4-4V23.714a4 4 0 0 1 4-4z" stroke="none"/><path d="M15 20.214h3.476a.5.5 0 0 1 .5.5v16.987a.5.5 0 0 1-.5.5H15a3.5 3.5 0 0 1-3.5-3.5V23.714a3.5 3.5 0 0 1 3.5-3.5z"/></g><g data-name="Rectangle 9"><path d="M19.137 7.847h7.6a8 8 0 0 1 8 8v14.854a8 8 0 0 1-8 8h-7.6V7.847z" stroke="none"/><path d="M20.137 8.347h6.6a7.5 7.5 0 0 1 7.5 7.5v14.854a7.5 7.5 0 0 1-7.5 7.5h-6.6a.5.5 0 0 1-.5-.5V8.847a.5.5 0 0 1 .5-.5z"/></g><g data-name="Rectangle 11"><path d="M15.412 22.748a1.7 1.7 0 0 1 1.7 1.7v2.369h-3.4v-2.369a1.7 1.7 0 0 1 1.7-1.7z" stroke="none"/><path d="M15.412 23.248h0a1.2 1.2 0 0 1 1.2 1.2v1.63a.239.239 0 0 1-.239.239h-1.922a.239.239 0 0 1-.239-.239v-1.63a1.2 1.2 0 0 1 1.2-1.2z"/></g><g data-name="Rectangle 11"><path d="M15.412 29.172a1.7 1.7 0 0 1 1.7 1.7v2.369h-3.4v-2.369a1.7 1.7 0 0 1 1.7-1.7z" stroke="none"/><path d="M15.412 29.672h0a1.2 1.2 0 0 1 1.2 1.2v1.63a.239.239 0 0 1-.239.239h-1.922a.239.239 0 0 1-.239-.239v-1.63a1.2 1.2 0 0 1 1.2-1.2z"/></g><g data-name="Group 8"><g data-name="Rectangle 10"><path d="M29.992 15.984a1.7 1.7 0 0 1 1.7 1.7v2.369h-3.4v-2.369a1.7 1.7 0 0 1 1.7-1.7z" stroke="none"/><path d="M29.992 16.484h0a1.2 1.2 0 0 1 1.2 1.2v1.63a.239.239 0 0 1-.239.239h-1.922a.239.239 0 0 1-.239-.239v-1.63a1.2 1.2 0 0 1 1.2-1.2z"/></g><g data-name="Rectangle 12"><path d="M23.889 15.984a1.7 1.7 0 0 1 1.7 1.7v2.369h-3.4v-2.369a1.7 1.7 0 0 1 1.7-1.7z" stroke="none"/><path d="M23.889 16.484h0a1.2 1.2 0 0 1 1.2 1.2v1.63a.239.239 0 0 1-.239.239h-1.922a.239.239 0 0 1-.239-.239v-1.63a1.2 1.2 0 0 1 1.2-1.2z"/></g></g><g data-name="Group 10"><g data-name="Rectangle 10"><path d="M29.992 22.75a1.7 1.7 0 0 1 1.7 1.7v2.369h-3.4V24.45a1.7 1.7 0 0 1 1.7-1.7z" stroke="none"/><path d="M29.992 23.25h0a1.2 1.2 0 0 1 1.2 1.2v1.63a.239.239 0 0 1-.239.239h-1.922a.239.239 0 0 1-.239-.239v-1.63a1.2 1.2 0 0 1 1.2-1.2z"/></g><g data-name="Rectangle 12"><path d="M23.889 22.75a1.7 1.7 0 0 1 1.7 1.7v2.369h-3.4V24.45a1.7 1.7 0 0 1 1.7-1.7z" stroke="none"/><path d="M23.889 23.25h0a1.2 1.2 0 0 1 1.2 1.2v1.63a.239.239 0 0 1-.239.239h-1.922a.239.239 0 0 1-.239-.239v-1.63a1.2 1.2 0 0 1 1.2-1.2z"/></g></g><g data-name="Group 9"><g data-name="Rectangle 10"><path d="M29.992 29.152a1.7 1.7 0 0 1 1.7 1.7v2.369h-3.4v-2.369a1.7 1.7 0 0 1 1.7-1.7z" stroke="none"/><path d="M29.992 29.652h0a1.2 1.2 0 0 1 1.2 1.2v1.63a.239.239 0 0 1-.239.239h-1.922a.239.239 0 0 1-.239-.239v-1.63a1.2 1.2 0 0 1 1.2-1.2z"/></g><g data-name="Rectangle 12"><path d="M23.889 29.152a1.7 1.7 0 0 1 1.7 1.7v2.369h-3.4v-2.369a1.7 1.7 0 0 1 1.7-1.7z" stroke="none"/><path d="M23.889 29.652h0a1.2 1.2 0 0 1 1.2 1.2v1.63a.239.239 0 0 1-.239.239h-1.922a.239.239 0 0 1-.239-.239v-1.63a1.2 1.2 0 0 1 1.2-1.2z"/></g></g></g></g></svg>