<svg xmlns="http://www.w3.org/2000/svg" xmlns:xlink="http://www.w3.org/1999/xlink" width="139.645" height="139.645" viewBox="0 0 139.645 139.645">
  <defs>
    <clipPath id="clip-path">
      <rect width="139.645" height="139.645" fill="none"/>
    </clipPath>
  </defs>
  <g id="Icon_ecit" data-name="Icon ecit" clip-path="url(#clip-path)">
    <ellipse id="Ellipse_50" data-name="Ellipse 50" cx="69.822" cy="69.822" rx="69.822" ry="69.822" fill="#34b290"/>
    <g id="Group_275" data-name="Group 275" transform="translate(-33 -213)">
      <path id="Path_412" data-name="Path 412" d="M15.809,7.155C24.369,7.155,31,6.94,31,15.5V114L15.6,129.392,0,114V15.5C0,6.94,7.249,7.155,15.809,7.155Z" transform="translate(120.213 215.397) rotate(30)" fill="#fff"/>
      <rect id="Rectangle_167" data-name="Rectangle 167" width="32" height="2" transform="translate(63.711 312.884) rotate(30)" fill="#34b290"/>
      <path id="Rectangle_168" data-name="Rectangle 168" d="M1,0H31a1,1,0,0,1,1,1V2a0,0,0,0,1,0,0H0A0,0,0,0,1,0,2V1A1,1,0,0,1,1,0Z" transform="translate(109.711 232.884) rotate(30)" fill="#34b290"/>
      <rect id="Rectangle_169" data-name="Rectangle 169" width="78" height="2" rx="1" transform="translate(111.933 242.393) rotate(120)" fill="#34b290"/>
      <rect id="Rectangle_170" data-name="Rectangle 170" width="78" height="2" rx="1" transform="translate(129.933 253.393) rotate(120)" fill="#34b290"/>
      <rect id="Rectangle_171" data-name="Rectangle 171" width="50" height="2" rx="1" transform="translate(113.933 259.518) rotate(120)" fill="#34b290"/>
    </g>
  </g>
</svg>
