<svg xmlns="http://www.w3.org/2000/svg" xmlns:xlink="http://www.w3.org/1999/xlink" width="48" height="48" viewBox="0 0 48 48">
  <defs>
    <clipPath id="clip-path">
      <rect width="48" height="48" fill="none"/>
    </clipPath>
  </defs>
  <g id="Email_Status_Icon" data-name="Email Status Icon" transform="translate(0 0.001)" clip-path="url(#clip-path)">
    <circle id="Ellipse_97" data-name="Ellipse 97" cx="24" cy="24" r="24" fill="#e6670f"/>
    <path id="Path_489" data-name="Path 489" d="M512.22,42.42H485.44a3.785,3.785,0,0,0-2.65,2.15c-.11.27-.2.57-.3.85V63.19a3.821,3.821,0,0,0,1.84,2.54,10.744,10.744,0,0,0,1.23.47h26.66a3.714,3.714,0,0,0,2.75-2.44c.06-.19.13-.38.2-.57V45.17A3.862,3.862,0,0,0,512.22,42.42Zm-25.39,1.91c8.03,0,15.99-.07,24.02-.07h.92l-.03.03c-.15.18-.27.32-.4.45q-5.865,5.97-11.72,11.95c-.65.66-.8.66-1.45,0q-5.865-5.955-11.73-11.93c-.1-.1-.2-.18-.33-.3l-.01-.01-.12-.12Zm-1.71,19.92a1.185,1.185,0,0,1-.66-1.15q-.015-8.76-.01-17.51a1.427,1.427,0,0,1,.05-.2q4.845,4.935,9.56,9.75Q489.635,59.64,485.12,64.25Zm2.74.13q3.8-3.855,7.68-7.81c.89.89,1.83,1.85,2.77,2.8.47.48.7.48,1.18,0,.91-.93,1.81-1.86,2.69-2.76,2.55,2.61,5.08,5.19,7.6,7.77Zm25.58-1.96a1.767,1.767,0,0,1-.74,1.73.629.629,0,0,1-.61-.07c-2.88-2.88-5.73-5.78-8.58-8.65,3.34-3.41,6.61-6.74,9.89-10.08.01.13.04.28.04.43Z" transform="translate(-474.786 -26.667)" fill="#fff"/>
    <g id="Group_298" data-name="Group 298" transform="translate(-474.786 -26.667)">
      <path id="Path_490" data-name="Path 490" d="M509.91,42.42h-.86c-3.16-3.2-6.36-6.36-9.52-9.58-.6-.61-.74-.61-1.35.01-3.15,3.21-6.34,6.37-9.5,9.57h-.86c3.43-3.47,6.89-6.91,10.31-10.39.65-.66.8-.66,1.45-.01C503.01,35.51,506.48,38.94,509.91,42.42Z" fill="#986200"/>
      <path id="Path_491" data-name="Path 491" d="M511.77,44.33a1.2,1.2,0,0,0-.11.12c-.12.14-.22.25-.32.36q-5.865,5.97-11.72,11.94c-.65.66-.8.66-1.44.01q-5.88-5.97-11.74-11.93a4.268,4.268,0,0,1-.33-.37l-.01-.01-.12-.12a.433.433,0,0,1,.06-.07c.11-.13.21-.24.31-.35.49-.5.98-.99,1.47-1.49h22.09c.49.49.98.98,1.46,1.47.11.11.21.23.34.37l.03.03A.137.137,0,0,1,511.77,44.33Z" fill="#986200"/>
      <path id="Path_492" data-name="Path 492" d="M509.05,42.42H488.68c3.16-3.2,6.35-6.36,9.5-9.57.61-.62.75-.62,1.35-.01C502.69,36.06,505.89,39.22,509.05,42.42Z" fill="#fff"/>
      <path id="Path_493" data-name="Path 493" d="M510.92,44.33c-.02.02-.09.1-.11.12-.11.12-.2.23-.3.33q-5.46,5.58-10.94,11.15c-.61.62-.75.62-1.35.01q-5.475-5.58-10.95-11.14c-.11-.11-.2-.21-.33-.35a1.2,1.2,0,0,0-.11-.12l.06-.06c.1-.12.19-.23.29-.33.5-.51,1-1.02,1.5-1.52h20.37c.5.5,1,1,1.49,1.5.1.11.19.2.31.34l.01.01Z" fill="#fff"/>
      <g id="Group_297" data-name="Group 297">
        <path id="Path_494" data-name="Path 494" d="M496.867,46.236c0,.381.151.572.451.572a1.751,1.751,0,0,0,1.158-.749,11.012,11.012,0,0,0,1.274-1.935,8.327,8.327,0,0,1,.8-1.342.719.719,0,0,1,.559-.238,2.2,2.2,0,0,1,.373.054,1.125,1.125,0,0,0,.416.027,6.3,6.3,0,0,0-.886,1.39,5.32,5.32,0,0,0-.748,2.166q0,.737.694.736a2.8,2.8,0,0,0,1.75-.722,4.8,4.8,0,0,0,1.384-1.846,5.39,5.39,0,0,0,.49-2.16,3.013,3.013,0,0,0-.64-2.036,3.351,3.351,0,0,0-1.458-1.022,5.626,5.626,0,0,0-1.826-.28,6.3,6.3,0,0,0-3.413,1.009,6.917,6.917,0,0,0-2.446,2.561,6.439,6.439,0,0,0-.843,3.093,3.639,3.639,0,0,0,.748,2.425,4.087,4.087,0,0,0,1.717,1.24,6.063,6.063,0,0,0,2.1.354,7.417,7.417,0,0,0,4.21-1.349c.082-.081.155-.077.219.014s.04.159-.069.2a7.941,7.941,0,0,1-4.454,1.431,5.2,5.2,0,0,1-4.239-1.69,4.15,4.15,0,0,1-.885-2.724,6.132,6.132,0,0,1,.545-2.453,6.765,6.765,0,0,1,1.587-2.234,8.259,8.259,0,0,1,2.419-1.574,6.968,6.968,0,0,1,2.779-.593,5.691,5.691,0,0,1,2.93.75,2.98,2.98,0,0,1,1.062,1.008,3.3,3.3,0,0,1,.5,1.859,4.675,4.675,0,0,1-.634,2.255,6.766,6.766,0,0,1-1.737,2.044,3.419,3.419,0,0,1-1.034.5,3.839,3.839,0,0,1-1.172.218h-.1a1.162,1.162,0,0,1-.913-.449,1.031,1.031,0,0,1-.217-.689,3.7,3.7,0,0,1,.149-.973,8,8,0,0,1-1.234,1.593,1.762,1.762,0,0,1-1.137.614.8.8,0,0,1-.449-.136,1.406,1.406,0,0,1-.545-1.295,5.334,5.334,0,0,1,1.444-3.379,3.644,3.644,0,0,1,2-1.253,2.616,2.616,0,0,1,.627-.082,1.862,1.862,0,0,1,1.349.545.342.342,0,0,1,.1.361.211.211,0,0,1-.272.129.775.775,0,0,0-.817-.613,1.3,1.3,0,0,0-.655.191,4.689,4.689,0,0,0-1.178.974,10.211,10.211,0,0,0-1.164,1.56A3.887,3.887,0,0,0,496.867,46.236Z" fill="#986200"/>
      </g>
    </g>
  </g>
</svg>
