<svg xmlns="http://www.w3.org/2000/svg" width="421.857" height="447.498" viewBox="0 0 421.857 447.498">
  <g id="Email_Status" data-name="Email Status" transform="translate(-7.705 -4.867)">
    <rect id="Rectangle_282" data-name="Rectangle 282" width="388" height="277" rx="29" transform="translate(26.588 163.416)" fill="#e6670f"/>
    <path id="Path_489" data-name="Path 489" d="M866.267,42.42h-345.7c-15.1,4.389-27.625,12.263-34.209,27.754-1.42,3.485-2.582,7.358-3.873,10.972V310.535c4.131,13.812,10.456,26.076,23.752,32.788,5.034,2.582,10.585,4.131,15.878,6.067H866.267c16.652-4.905,29.69-13.812,35.5-31.5.775-2.453,1.678-4.905,2.582-7.358V77.919C898.152,58.814,885.5,46.938,866.267,42.42ZM538.514,67.076c103.658,0,206.411-.9,310.068-.9h11.876l-.387.387c-1.936,2.324-3.485,4.131-5.163,5.809q-75.71,77.065-151.291,154.26c-8.39,8.52-10.327,8.52-18.718,0q-75.71-76.872-151.42-154c-1.291-1.291-2.582-2.324-4.26-3.873l-.128-.129-1.549-1.549ZM516.44,324.218c-5.034-2.324-8.52-7.358-8.52-14.845q-.193-113.081-.128-226.032a18.436,18.436,0,0,1,.645-2.582q62.543,63.7,123.408,125.86Q574.723,264.709,516.44,324.218Zm35.37,1.678q48.99-49.763,99.139-100.817c11.489,11.489,23.623,23.881,35.757,36.145,6.067,6.2,9.036,6.2,15.232,0,11.748-12.005,23.365-24.01,34.725-35.628,32.918,33.692,65.577,67,98.107,100.3Zm330.206-25.3c0,8.907-1.162,17.556-9.552,22.332-1.937,1.162-6.454.645-7.874-.9-37.178-37.177-73.968-74.613-110.758-111.661,43.115-44.019,85.327-87.005,127.668-130.12.128,1.678.516,3.614.516,5.551Z" transform="translate(-474.786 102.975)" fill="#b55716"/>
    <g id="Group_298" data-name="Group 298" transform="translate(52.756 4.867)">
      <path id="Path_490" data-name="Path 490" d="M772.975,172.062h-11.1c-40.792-41.308-82.1-82.1-122.891-123.666-7.745-7.874-9.552-7.874-17.427.129-40.662,41.437-81.841,82.229-122.633,123.537h-11.1c44.277-44.793,88.941-89.2,133.089-134.122,8.39-8.52,10.327-8.52,18.718-.129C683.9,82.862,728.7,127.139,772.975,172.062Z" transform="translate(-464.068 -31.534)" fill="#b55716"/>
      <path id="Path_491" data-name="Path 491" d="M818.9,67.076a15.529,15.529,0,0,0-1.42,1.549c-1.549,1.807-2.84,3.227-4.131,4.647Q737.636,150.337,662.055,227.4c-8.391,8.52-10.327,8.52-18.589.129q-75.9-77.065-151.549-154a55.139,55.139,0,0,1-4.26-4.776l-.128-.129-1.549-1.549a5.618,5.618,0,0,1,.775-.9c1.42-1.678,2.711-3.1,4-4.518,6.325-6.454,12.65-12.78,18.976-19.234H794.887c6.325,6.325,12.651,12.651,18.846,18.976,1.42,1.42,2.711,2.969,4.389,4.776l.387.387A1.773,1.773,0,0,1,818.9,67.076Z" transform="translate(-485.98 98.108)" fill="#b55716"/>
      <path id="Path_492" data-name="Path 492" d="M751.632,161.939H488.68c40.792-41.308,81.971-82.1,122.633-123.537,7.875-8,9.682-8,17.427-.129C669.532,79.84,710.84,120.631,751.632,161.939Z" transform="translate(-453.827 -21.411)" fill="#e6670f"/>
      <path id="Path_493" data-name="Path 493" d="M797.8,67.076c-.258.258-1.162,1.291-1.42,1.549-1.42,1.549-2.582,2.969-3.872,4.26q-70.482,72.031-141.222,143.933c-7.875,8-9.681,8-17.427.129q-70.676-72.031-141.352-143.8c-1.419-1.42-2.581-2.711-4.26-4.518a15.416,15.416,0,0,0-1.42-1.549l.775-.775c1.291-1.549,2.452-2.969,3.743-4.26,6.454-6.583,12.908-13.167,19.363-19.621H773.663c6.454,6.454,12.908,12.909,19.234,19.363,1.291,1.42,2.452,2.582,4,4.389l.129.129Z" transform="translate(-475.858 98.108)" fill="#e6670f"/>
      <g id="Group_297" data-name="Group 297" transform="translate(94.466 90.765)">
        <path id="Path_494" data-name="Path 494" d="M539.369,137.588c0,4.918,1.949,7.384,5.822,7.384q6.487,0,14.949-9.669a142.169,142.169,0,0,0,16.445-24.978Q584.04,96.074,586.873,93a9.275,9.275,0,0,1,7.216-3.072,28.344,28.344,0,0,1,4.815.7,14.524,14.524,0,0,0,5.37.349q-4.027,3.873-11.437,17.943-9.662,18.472-9.656,27.96,0,9.507,8.958,9.5,11.076,0,22.59-9.32a61.939,61.939,0,0,0,17.866-23.83q6.332-14.5,6.326-27.883,0-16.71-8.262-26.282a43.256,43.256,0,0,0-18.821-13.193,72.624,72.624,0,0,0-23.571-3.614A81.312,81.312,0,0,0,544.21,55.282q-20.661,13.012-31.575,33.059-10.881,20.06-10.882,39.927t9.655,31.3Q521.09,171,533.573,175.579a78.272,78.272,0,0,0,27.083,4.57q28.5,0,54.346-17.414c1.058-1.046,2-.994,2.827.181s.516,2.052-.89,2.633q-27.786,18.472-57.5,18.472-36.6,0-54.72-21.816-11.405-13.883-11.424-35.163a79.155,79.155,0,0,1,7.035-31.665,87.326,87.326,0,0,1,20.486-28.838A106.614,106.614,0,0,1,552.046,46.22a89.942,89.942,0,0,1,35.873-7.655q21.28,0,37.823,9.682a38.475,38.475,0,0,1,13.709,13.012q6.506,9.856,6.506,24,0,14.174-8.184,29.109a87.351,87.351,0,0,1-22.422,26.386q-4.744,3.7-13.348,6.506a49.56,49.56,0,0,1-15.129,2.814h-1.24q-6.855,0-11.786-5.8c-1.884-2.233-2.8-5.189-2.8-8.894a47.793,47.793,0,0,1,1.923-12.56,103.315,103.315,0,0,1-15.93,20.564c-5.434,5.28-10.34,7.926-14.677,7.926a10.307,10.307,0,0,1-5.8-1.756q-7.048-4.4-7.035-16.717,0-21.28,18.64-43.619a47.042,47.042,0,0,1,25.844-16.175,33.771,33.771,0,0,1,8.094-1.059,24.037,24.037,0,0,1,17.414,7.035c1.407,1.639,1.82,3.188,1.226,4.66s-1.743,2.027-3.511,1.665q-2.265-7.9-10.547-7.913a16.734,16.734,0,0,0-8.455,2.466q-7.2,3.873-15.206,12.573a131.8,131.8,0,0,0-15.026,20.138Q539.388,126.861,539.369,137.588Z" transform="translate(-493.298 -38.565)" fill="#fff"/>
      </g>
    </g>
  </g>
</svg>
