<svg xmlns="http://www.w3.org/2000/svg" xmlns:xlink="http://www.w3.org/1999/xlink" width="138.9565224292598" height="138.4782614413868" style=""><rect id="backgroundrect" width="100%" height="100%" x="0" y="0" fill="none" stroke="none" class="selected" style=""/>
  <defs>
    <clipPath id="clip-path">
      <rect width="197.48699951171875" height="197.48699951171875" fill="none" id="svg_1"/>
    </clipPath>
  </defs>
  
<g class="currentLayer" style=""><title>Layer 1</title><g id="Icon_enable" data-name="Icon enable" clip-path="url(#clip-path)" class="">
    <circle id="Ellipse_51" data-name="Ellipse 51" cx="41.01765060424805" cy="139.7616536617279" r="69.8219985961914" transform="rotate(-45 -28.80434799194338,69.9396514892578) " fill="#f9f33b"/>
    <g id="Edit" transform="rotate(-45 4.868652343750003,69.54764556884766) ">
      <path id="Subtraction_11" data-name="Subtraction 11" d="M51.31055078124973,163.4777272701267 a48.742,48.742 0 0 1 -9.683,-0.9690000000000004 a48.031,48.031 0 0 1 -9.019,-2.7800000000000002 a48.159,48.159 0 0 1 -8.161,-4.4 a48.338,48.338 0 0 1 -7.111,-5.825 a48.127,48.127 0 0 1 -5.867,-7.061 a47.627,47.627 0 0 1 -4.43,-8.1 a47.245,47.245 0 0 1 -2.8,-8.955 a47.712,47.712 0 0 1 -0.976,-9.614 a47.712,47.712 0 0 1 0.976,-9.614 a47.245,47.245 0 0 1 2.8,-8.955 a47.631,47.631 0 0 1 4.43,-8.1 a48.149,48.149 0 0 1 5.867,-7.06 a48.338,48.338 0 0 1 7.111,-5.825 a48.2,48.2 0 0 1 8.161,-4.4 a48.065,48.065 0 0 1 9.019,-2.779 a48.706,48.706 0 0 1 9.683,-0.9690000000000004 a48.7,48.7 0 0 1 9.683,0.9690000000000004 a48.018,48.018 0 0 1 9.019,2.779 a48.2,48.2 0 0 1 8.162,4.4 a48.334,48.334 0 0 1 7.11,5.825 a48.118,48.118 0 0 1 5.867,7.06 a47.6,47.6 0 0 1 4.43,8.1 a47.211,47.211 0 0 1 2.8,8.955 a47.748,47.748 0 0 1 0.976,9.614 a47.748,47.748 0 0 1 -0.976,9.614 a47.222,47.222 0 0 1 -2.8,8.955 a47.574,47.574 0 0 1 -4.43,8.1 a48.1,48.1 0 0 1 -5.867,7.061 a48.334,48.334 0 0 1 -7.11,5.825 a48.163,48.163 0 0 1 -8.162,4.4 a48.02,48.02 0 0 1 -9.019,2.7800000000000002 A48.734,48.734 0 0 1 51.31055078124973,163.4777272701267 zm0,-81.832 c-19.108,0 -34.654,15.309 -34.654,34.127 s15.545,34.127 34.654,34.127 s34.654,-15.309 34.654,-34.127 S70.4185507812499,81.64372727012596 51.31055078124973,81.64372727012596 z" fill="#fff"/>
    </g>
  </g></g></svg>