<svg xmlns="http://www.w3.org/2000/svg" xmlns:xlink="http://www.w3.org/1999/xlink" width="197.487" height="197.488" viewBox="0 0 197.487 197.488">
  <defs>
    <clipPath id="clip-path">
      <rect width="197.487" height="197.487" fill="none"/>
    </clipPath>
  </defs>
  <g id="Icon_enable" data-name="Icon enable" clip-path="url(#clip-path)">
    <circle id="Ellipse_51" data-name="Ellipse 51" cx="69.822" cy="69.822" r="69.822" transform="translate(0 98.744) rotate(-45)" fill="#f9f33b"/>
    <g id="Edit" transform="translate(33.673 98.352) rotate(-45)">
      <path id="Subtraction_11" data-name="Subtraction 11" d="M4437.771-4573.4a48.742,48.742,0,0,1-9.683-.969,48.031,48.031,0,0,1-9.019-2.78,48.159,48.159,0,0,1-8.161-4.4,48.338,48.338,0,0,1-7.111-5.825,48.127,48.127,0,0,1-5.867-7.061,47.627,47.627,0,0,1-4.43-8.1,47.245,47.245,0,0,1-2.8-8.955,47.712,47.712,0,0,1-.976-9.614,47.712,47.712,0,0,1,.976-9.614,47.245,47.245,0,0,1,2.8-8.955,47.631,47.631,0,0,1,4.43-8.1,48.149,48.149,0,0,1,5.867-7.06,48.338,48.338,0,0,1,7.111-5.825,48.2,48.2,0,0,1,8.161-4.4,48.065,48.065,0,0,1,9.019-2.779,48.706,48.706,0,0,1,9.683-.969,48.7,48.7,0,0,1,9.683.969,48.018,48.018,0,0,1,9.019,2.779,48.2,48.2,0,0,1,8.162,4.4,48.334,48.334,0,0,1,7.11,5.825,48.118,48.118,0,0,1,5.867,7.06,47.6,47.6,0,0,1,4.43,8.1,47.211,47.211,0,0,1,2.8,8.955,47.748,47.748,0,0,1,.976,9.614,47.748,47.748,0,0,1-.976,9.614,47.222,47.222,0,0,1-2.8,8.955,47.574,47.574,0,0,1-4.43,8.1,48.1,48.1,0,0,1-5.867,7.061,48.334,48.334,0,0,1-7.11,5.825,48.163,48.163,0,0,1-8.162,4.4,48.02,48.02,0,0,1-9.019,2.78A48.734,48.734,0,0,1,4437.771-4573.4Zm0-81.832c-19.108,0-34.654,15.309-34.654,34.127s15.545,34.127,34.654,34.127,34.654-15.309,34.654-34.127S4456.879-4655.234,4437.771-4655.234Z" transform="translate(-4391.329 4667.33)" fill="#fff"/>
    </g>
  </g>
</svg>
