<svg xmlns="http://www.w3.org/2000/svg" xmlns:xlink="http://www.w3.org/1999/xlink" width="48" height="48" viewBox="0 0 48 48">
  <defs>
    <clipPath id="clip-path">
      <rect width="48" height="48" fill="none"/>
    </clipPath>
  </defs>
  <g id="Fee_Management_Icon" data-name="Fee Management Icon" transform="translate(0 0)" clip-path="url(#clip-path)">
    <path id="Path_484" data-name="Path 484" d="M458.436,125.938a24,24,0,0,1-47.92,1.91c-.05-.63-.08-1.27-.08-1.91a24,24,0,1,1,48,0Z" transform="translate(-410.436 -101.938)" fill="#ab5e0b"/>
    <g id="Group_295" data-name="Group 295" transform="translate(-410.436 -101.938)">
      <circle id="Ellipse_92" data-name="Ellipse 92" cx="7.879" cy="7.879" r="7.879" transform="translate(426.557 118.059)" fill="#fff"/>
      <circle id="Ellipse_93" data-name="Ellipse 93" cx="6.209" cy="6.209" r="6.209" transform="translate(428.226 119.728)" fill="#ab5e0b"/>
      <text id="_" data-name="$" transform="translate(431.632 130.7)" fill="#fff" font-size="12.27" font-family="AgencyFB-Bold, Agency FB" font-weight="700"><tspan x="0" y="0">$</tspan></text>
    </g>
    <rect id="Rectangle_206" data-name="Rectangle 206" width="28.458" height="28.458" rx="2.825" transform="translate(9.77 9.77)" fill="none" stroke="#fff" stroke-miterlimit="10" stroke-width="1"/>
    <circle id="Ellipse_94" data-name="Ellipse 94" cx="7.364" cy="7.364" r="7.364" transform="translate(27.466 5.295)" fill="#ab5e0b"/>
    <path id="Path_485" data-name="Path 485" d="M450.456,113.007c0,.383-.28.493-.492.646-.973.7-1.015,1.413-.042,2.091.525.367.627.7.241,1.2a3.027,3.027,0,0,0-.192.314c-.643,1.07-.642,1.07-1.821.756a1.067,1.067,0,0,0-1.437,1.013c-.029.754-.318,1.09-1.086.97a2.076,2.076,0,0,0-.589,0c-.764.1-1.165-.107-1.229-.989a1.044,1.044,0,0,0-1.655-.888c-.741.366-1.128.181-1.4-.524a2.676,2.676,0,0,0-.223-.382c-.529-.893-.529-.893.286-1.58a1.1,1.1,0,0,0-.037-1.813c-.8-.652-.8-.652-.27-1.553a4.718,4.718,0,0,0,.334-.573c.251-.619.628-.666,1.211-.4,1.014.455,1.718.059,1.8-1.043.047-.658.289-.88.906-.8a4.658,4.658,0,0,0,.591,0c1.136,0,1.136,0,1.367,1.134a1.112,1.112,0,0,0,1.533.822c1.055-.336,1.055-.336,1.626.627Zm-3.306,1.687a1.868,1.868,0,0,0-1.908-1.838,1.933,1.933,0,0,0-1.887,1.889,1.875,1.875,0,0,0,1.936,1.809A1.806,1.806,0,0,0,447.15,114.694Z" transform="translate(-410.436 -101.938)" fill="#fff"/>
  </g>
</svg>
