<svg xmlns="http://www.w3.org/2000/svg" width="450.596" height="457.521" viewBox="0 0 450.596 457.521">
  <g id="Fee_management" data-name="Fee management" transform="translate(0.23 -5.295)">
    <rect id="Rectangle_206" data-name="Rectangle 206" width="386.707" height="386.707" rx="2.825" transform="translate(9.77 66.11)" fill="#ab5e0b" stroke="#582e00" stroke-miterlimit="10" stroke-width="20"/>
    <g id="Group_295" data-name="Group 295" transform="translate(96.064 152.403)">
      <circle id="Ellipse_92" data-name="Ellipse 92" cx="107.06" cy="107.06" r="107.06" transform="translate(0)" fill="#fff"/>
      <circle id="Ellipse_93" data-name="Ellipse 93" cx="84.376" cy="84.376" r="84.376" transform="translate(22.684 22.684)" fill="#ab5e0b"/>
      <text id="_" data-name="$" transform="translate(68.959 165.718)" fill="#fff" font-size="157" font-family="AgencyFB-Bold, Agency FB" font-weight="700"><tspan x="0" y="0">$</tspan></text>
    </g>
    <circle id="Ellipse_94" data-name="Ellipse 94" cx="100.07" cy="100.07" r="100.07" transform="translate(250.226 5.295)" fill="#ab5e0b"/>
    <path id="Path_485" data-name="Path 485" d="M580.318,158.035c-.055,5.2-3.805,6.7-6.686,8.778-13.221,9.512-13.792,19.2-.571,28.414,7.134,4.987,8.52,9.553,3.275,16.306a41.094,41.094,0,0,0-2.609,4.267c-8.737,14.54-8.723,14.54-24.745,10.273-10.273-2.745-19.092,2.949-19.526,13.765-.395,10.246-4.322,14.811-14.757,13.181a28.2,28.2,0,0,0-8-.014c-10.382,1.4-15.831-1.454-16.7-13.439-.924-12.651-10.8-17.828-22.489-12.066-10.069,4.973-15.327,2.459-19.037-7.12a36.346,36.346,0,0,0-3.03-5.191c-7.188-12.134-7.188-12.134,3.887-21.47,8.561-7.216,8.343-17.407-.5-24.636-10.871-8.86-10.871-8.86-3.669-21.1,1.522-2.6,3.411-5.028,4.539-7.786,3.411-8.411,8.534-9.05,16.456-5.49,13.779,6.183,23.345.8,24.432-14.173.638-8.941,3.927-11.958,12.311-10.9a63.309,63.309,0,0,0,8.031.054c15.436,0,15.436,0,18.576,15.409,1.97,9.661,10.748,14.363,20.831,11.17,14.336-4.566,14.336-4.566,22.095,8.52C575.154,149.366,577.886,153.945,580.318,158.035Zm-44.924,22.924a25.385,25.385,0,0,0-25.927-24.976c-14.078.367-25.8,12.121-25.641,25.669.19,13.765,11.917,24.731,26.307,24.582C524.823,206.084,535.585,195.322,535.395,180.959Z" transform="translate(-159.501 -74.279)" fill="#fff"/>
  </g>
</svg>
