<svg xmlns="http://www.w3.org/2000/svg" width="575.998" height="433.879" viewBox="0 0 575.998 433.879">
  <g id="Finance" transform="translate(-5.902 -11.121)">
    <path id="Path_439" data-name="Path 439" d="M441.136,163.42v277.1H350.51v-.337c4.042-.674,8.085-1.516,11.623-2.19,18.866-3.874,36.553-11.455,48.176-28.3,16.34-23.583,19.035-50.029,12.971-76.644-10.444-45.987-36.217-78.16-72.77-100.227v-69.4Z" transform="translate(-96.656 -4.85)" fill="#665300"/>
    <path id="Path_440" data-name="Path 440" d="M415.615,346.2c-11.623,16.845-30.927,22.64-49.793,26.514-3.537.674-11.269,1.516-15.312,2.19V167.54c36.553,22.067,67.632,56.026,78.076,102.013C434.65,296.168,431.955,322.614,415.615,346.2Z" transform="translate(-96.656 60.431)" fill="#fff" opacity="0.215"/>
    <rect id="Rectangle_201" data-name="Rectangle 201" width="90.583" height="342.834" transform="translate(372.58 92.918)" fill="#665300"/>
    <rect id="Rectangle_202" data-name="Rectangle 202" width="90.583" height="424.631" transform="translate(491.316 11.121)" fill="#665300"/>
    <path id="Path_441" data-name="Path 441" d="M544.157,166.6c-1.685-.505-4.548.168-6.232,1.179-29.647,18.361-60.305,18.192-91.468,5.053-4.885-2.021-8.928-3.032-13.139-.505-14.823,9.1-30.826,16.845-44.133,27.794-30.489,25.267-49.355,57.778-52.893,97.532-1.685,19.708.673,39.417,10.275,57.272,11.287,21.056,31.163,30.321,53.062,35.88,32.005,8.086,55.083,10.949,87.762,10.949,11.623,0,23.246,1.011,34.7-.168,17.519-1.685,41.944-5.39,61.653-9.1V185.131A231.236,231.236,0,0,0,544.157,166.6Z" transform="translate(-329.889 42.84)" fill="#665300"/>
    <path id="Path_442" data-name="Path 442" d="M410.309,344.412c-11.623,16.845-29.31,24.425-48.176,28.3-3.538.674-7.58,1.516-11.623,2.19V167.54c36.553,22.067,62.326,54.241,72.77,100.227C429.344,294.382,426.649,320.829,410.309,344.412Z" transform="translate(-96.656 60.431)" fill="#665300"/>
    <path id="Path_443" data-name="Path 443" d="M409.929,273.745c-5.677-.623-12.7-1.331-19.692-2.223-14.857-1.887-25.318-8.406-30.219-23.954-4.548-14.4-11.59-28-17.519-41.944-3.992-9.45-2.291-20.349,8.473-21.073,5.71-.371,20.618,10.814,23.92,15.514,16.828,23.92,13.8-14.773,18.445-26.548,3.1-7.883,8.119-13.459,17.148-13.964,9.012-.489,15.228,4.851,17.519,12.364,6.3,20.787,14.706,19.507,24.678,7.614.505-.607,4.009-3.352,6.654-3.706,7.546-1.061,9.028.808,13.223,3.655,5.828,3.958,2.645,11.421-.2,17.182-8.742,17.788-15.093,36.048-14.772,56.346.05,3.706-3.706,8.776-7.143,10.966C438.633,271.5,425.022,272.987,409.929,273.745Z" transform="translate(-254.854 -66.611)" fill="#665300"/>
    <text id="_" data-name="$" transform="translate(141.759 371.418)" fill="#fff" font-size="110" font-family="AgencyFB-Bold, Agency FB" font-weight="700"><tspan x="0" y="0">$</tspan></text>
  </g>
</svg>
