<svg xmlns="http://www.w3.org/2000/svg" xmlns:xlink="http://www.w3.org/1999/xlink" width="48" height="48" viewBox="0 0 48 48">
  <defs>
    <clipPath id="clip-path">
      <rect width="48" height="48" fill="none"/>
    </clipPath>
  </defs>
  <g id="Fund_Switcing_Icon" data-name="Fund Switcing Icon" transform="translate(0 0.001)" clip-path="url(#clip-path)">
    <circle id="Ellipse_98" data-name="Ellipse 98" cx="24" cy="24" r="24" fill="#5e2900"/>
    <g id="Group_300" data-name="Group 300" transform="translate(-533.546 -30.171)">
      <circle id="Ellipse_99" data-name="Ellipse 99" cx="9.472" cy="9.472" r="9.472" transform="translate(535.409 44.699)" fill="#5e2900"/>
      <circle id="Ellipse_100" data-name="Ellipse 100" cx="8.154" cy="8.154" r="8.154" transform="translate(536.727 46.017)" fill="#fff"/>
      <g id="Group_299" data-name="Group 299">
        <path id="Path_495" data-name="Path 495" d="M547.562,59.125a.936.936,0,0,1-.39.871,1.765,1.765,0,0,1-.893.173c-.067,0-.173,0-.317-.007h-.324v1h-1.577v-1h-.325c-.139.005-.245.007-.316.007a1.754,1.754,0,0,1-.887-.173.941.941,0,0,1-.374-.871V56.546h1.686V58.8h2.031V56.6l-3.35-3.169a1.214,1.214,0,0,1-.367-.915V50.128a.952.952,0,0,1,.374-.871,1.754,1.754,0,0,1,.887-.173c.071,0,.179,0,.32.007s.248.007.321.007V48.09h1.577V49.1c.072,0,.181,0,.328-.007s.256-.007.328-.007a1.75,1.75,0,0,1,.886.173.918.918,0,0,1,.382.857v2.434h-1.686V50.481h-2.031v1.981l3.327,3.141a1.189,1.189,0,0,1,.39.914Z" fill="#5e2900"/>
      </g>
    </g>
    <g id="Group_301" data-name="Group 301" transform="translate(-533.546 -30.171)">
      <circle id="Ellipse_101" data-name="Ellipse 101" cx="8.154" cy="8.154" r="8.154" transform="translate(562.352 46.017)" fill="#f7f8f8" stroke="#fff" stroke-miterlimit="10" stroke-width="1"/>
      <circle id="Ellipse_102" data-name="Ellipse 102" cx="7.019" cy="7.019" r="7.019" transform="translate(563.487 47.152)" fill="#5e2900"/>
      <text id="_" data-name="$" transform="translate(567.605 59.416)" fill="#fff" font-size="12.699" font-family="AgencyFB-Bold, Agency FB" font-weight="700"><tspan x="0" y="0">$</tspan></text>
    </g>
    <path id="Path_496" data-name="Path 496" d="M563.7,43.928h-2.96a.45.45,0,0,1-.46-.281.412.412,0,0,1,.138-.475c.435-.44.872-.876,1.309-1.313.4-.4.406-.406.008-.8a5.842,5.842,0,0,0-9.9,2.945c-.128.581-.242.689-.836.689h-2.334c-.586,0-.781-.229-.71-.8a9.281,9.281,0,0,1,1.837-4.562,9.446,9.446,0,0,1,6.184-3.732,9.549,9.549,0,0,1,7.214,1.657,9.024,9.024,0,0,1,1.429,1.248c.223.236.224.235.46,0q.646-.646,1.294-1.293c.147-.145.3-.273.53-.173a.484.484,0,0,1,.271.515q0,2.9,0,5.8c0,.428-.149.572-.586.573C565.621,43.93,564.658,43.928,563.7,43.928Z" transform="translate(-533.546 -30.171)" fill="#fff"/>
    <path id="Path_497" data-name="Path 497" d="M547.91,67.875q0-1.433,0-2.866c0-.453.141-.6.585-.6h5.781a.477.477,0,0,1,.532.279c.1.242-.05.4-.2.547-.283.285-.567.568-.851.852-.193.193-.377.4-.582.576-.18.158-.147.276,0,.436a5.856,5.856,0,0,0,8.34.385,5.6,5.6,0,0,0,1.765-3.262.594.594,0,0,1,.662-.583q1.3-.006,2.6,0a.583.583,0,0,1,.618.741,9.624,9.624,0,0,1-8.05,8.365,9.579,9.579,0,0,1-7.2-1.649,8.53,8.53,0,0,1-1.495-1.319c-.127-.141-.212-.145-.346-.008-.424.439-.859.867-1.292,1.3-.165.163-.323.356-.6.237s-.27-.347-.27-.588C547.912,69.77,547.91,68.822,547.91,67.875Z" transform="translate(-533.546 -30.171)" fill="#5d2c11" stroke="#fff" stroke-miterlimit="10" stroke-width="1"/>
  </g>
</svg>
