<svg xmlns="http://www.w3.org/2000/svg" width="522.674" height="457.916" viewBox="0 0 522.674 457.916">
  <g id="Fund_Switching" data-name="Fund Switching" transform="translate(-1.863 -0.281)">
    <g id="Group_300" data-name="Group 300" transform="translate(1.864 115.843)">
      <circle id="Ellipse_99" data-name="Ellipse 99" cx="113.371" cy="113.371" r="113.371" transform="translate(0 0)" fill="#5e2900"/>
      <circle id="Ellipse_100" data-name="Ellipse 100" cx="97.593" cy="97.593" r="97.593" transform="translate(15.778 15.778)" fill="#2f1b0c"/>
      <g id="Group_299" data-name="Group 299" transform="translate(80.79 40.591)">
        <path id="Path_495" data-name="Path 495" d="M606.829,180.17q0,7.577-4.668,10.425-3.358,2.065-10.688,2.071c-.8,0-2.071-.024-3.795-.084H583.8v11.981H564.924V192.582h-3.89c-1.664.06-2.933.084-3.783.084q-7.235,0-10.616-2.071-4.471-2.747-4.477-10.425V149.3h20.18V176.28h24.309V150l-40.1-37.93a14.525,14.525,0,0,1-4.393-10.952V72.483q0-7.576,4.477-10.425,3.375-2.065,10.616-2.071c.85,0,2.142.024,3.83.084s2.968.084,3.842.084V48.09H583.8V60.155c.862,0,2.166-.024,3.926-.084s3.064-.084,3.926-.084q7.236,0,10.6,2.071,4.561,2.747,4.572,10.258v29.133h-20.18V76.708H562.339v23.711l39.822,37.6a14.225,14.225,0,0,1,4.668,10.94Z" transform="translate(-542.159 -48.09)" fill="#fff"/>
      </g>
    </g>
    <g id="Group_301" data-name="Group 301" transform="translate(324.352 131.621)">
      <circle id="Ellipse_101" data-name="Ellipse 101" cx="97.593" cy="97.593" r="97.593" fill="#2f1b0c" stroke="#5e2900" stroke-miterlimit="10" stroke-width="10"/>
      <circle id="Ellipse_102" data-name="Ellipse 102" cx="84.011" cy="84.011" r="84.011" transform="translate(13.582 13.582)" fill="#5e2900"/>
      <text id="_" data-name="$" transform="translate(62.874 158.775)" fill="#fff" font-size="154" font-family="AgencyFB-Bold, Agency FB" font-weight="700"><tspan x="0" y="0">$</tspan></text>
    </g>
    <path id="Path_496" data-name="Path 496" d="M736.547,136.788H701.118c-2.526,0-4.476-.922-5.506-3.363-.982-2.346.119-4.129,1.652-5.685,5.207-5.266,10.436-10.485,15.667-15.716,4.752-4.752,4.86-4.86.1-9.516C693.218,83.094,669.6,76.7,643.151,84.459c-26.572,7.78-42.623,26.248-48.607,53.3-1.532,6.954-2.9,8.247-10.006,8.247q-13.968.018-27.936,0c-7.014-.012-9.348-2.741-8.5-9.611a111.083,111.083,0,0,1,21.988-54.6c18.755-24.621,43.46-39.678,74.017-44.669,31.407-5.147,60.205,1.747,86.346,19.833a108.009,108.009,0,0,1,17.1,14.938c2.669,2.825,2.681,2.813,5.506,0q7.738-7.738,15.488-15.476c1.759-1.736,3.614-3.268,6.343-2.071s3.256,3.495,3.244,6.164q-.017,34.7-.012,69.421c-.011,5.123-1.783,6.846-7.014,6.858C759.6,136.812,748.073,136.788,736.547,136.788Z" transform="translate(-396.125 -30.171)" fill="#2f1b0c" stroke="#5e2900" stroke-width="10"/>
    <path id="Path_497" data-name="Path 497" d="M547.921,114.356q0-17.146.013-34.3c0-5.422,1.687-7.158,7-7.158q34.453-.018,68.9,0h.3c2.753-.1,5.195.431,6.368,3.339s-.6,4.74-2.383,6.547c-3.387,3.411-6.786,6.8-10.186,10.2-2.31,2.31-4.512,4.74-6.965,6.894-2.154,1.891-1.759,3.3-.012,5.219,26.62,29.121,70.7,31.252,99.823,4.608A67.086,67.086,0,0,0,731.9,70.656c.838-4.836,3.1-6.966,7.923-6.978q15.567-.072,31.132,0c5.446.036,8.068,3.435,7.4,8.869-2.753,21.987-10.808,41.749-24.9,58.888C734.832,154.093,710.978,167.978,682,172.67c-31.335,5.075-60.073-1.759-86.178-19.737a102.106,102.106,0,0,1-17.894-15.787c-1.52-1.688-2.537-1.735-4.141-.1-5.075,5.254-10.282,10.377-15.464,15.524-1.975,1.951-3.867,4.261-7.181,2.837-3.172-1.353-3.232-4.153-3.232-7.038C547.945,137.037,547.921,125.691,547.921,114.356Z" transform="translate(-396.433 278.888)" fill="#5d2c11" stroke="#2f1b0c" stroke-miterlimit="10" stroke-width="10"/>
  </g>
</svg>
