<svg xmlns="http://www.w3.org/2000/svg" width="577.275" height="369.229" viewBox="0 0 577.275 369.229">
  <g id="Group_584" data-name="Group 584" transform="translate(-59.994 -514.363)">
    <g id="Group_582" data-name="Group 582" transform="translate(59.994 514.363)">
      <path id="Path_425" data-name="Path 425" d="M817.568,517.553C814.78,490.03,281.711,583.087,283.99,601.03l-36.329-232.2c18.585,26.9,560.768-65.866,551.033-86.22Z" transform="translate(-247.658 -268.585)" fill="#92a07e"/>
      <path id="Path_426" data-name="Path 426" d="M813.278,528.664c-12.965-82.88-520.612,141.223-528.843,88.544-7.234-46.2-37.125-237.266-36.771-234.988,13.961,89.251,541.476-147.241,550.171-91.685S826.243,611.543,813.278,528.664Z" transform="translate(-247.661 -281.975)" fill="#fff"/>
      <path id="Path_427" data-name="Path 427" d="M776.4,480.675C766.98,426.6,284.045,627.5,278.669,582.582c-6.947-58.277-27.723-177.22-30.023-191.866,22.28,43.984,507.6-144.564,514.13-101.266C770.165,338.523,776.4,480.675,776.4,480.675Z" transform="translate(-226.85 -261.576)" fill="#90d43c"/>
      <ellipse id="Ellipse_79" data-name="Ellipse 79" cx="74.219" cy="74.22" rx="74.219" ry="74.22" transform="translate(219.343 98.235)" fill="#fff"/>
      <text id="_" data-name="$" transform="translate(272.139 210.104) rotate(-8.893)" fill="#b1d288" font-size="92" font-family="AgencyFB-Reg, Agency FB"><tspan x="0" y="0">$</tspan></text>
    </g>
    <g id="Group_583" data-name="Group 583" transform="translate(79.476 611.398)">
      <path id="Path_428" data-name="Path 428" d="M806.278,522.222c1.5-27.589-557.206-18.076-557.737,0V287.19c6,118.633,564.2,21.616,557.737,0Z" transform="translate(-248.541 -268.82)" fill="#92a07e"/>
      <path id="Path_429" data-name="Path 429" d="M806.278,542.571c0-83.876-557.737,53.344-557.737,0V304.73c0,90.357,557.737-61.751,557.737-5.531Z" transform="translate(-248.541 -286.36)" fill="#fff"/>
      <path id="Path_430" data-name="Path 430" d="M772.914,489.684c-.951-54.891-525.235,67.923-523.6,22.744,2.146-58.653,0-179.388,0-194.212,15.222,46.883,523.842-64.339,523.6-20.554C772.649,347.266,772.914,489.684,772.914,489.684Z" transform="translate(-232.258 -267.92)" fill="#90d43c"/>
      <ellipse id="Ellipse_80" data-name="Ellipse 80" cx="74.219" cy="74.22" rx="74.219" ry="74.22" transform="translate(204.647 60.886)" fill="#fff"/>
      <text id="_2" data-name="$" transform="translate(252.553 183.633)" fill="#90d43c" font-size="128" font-family="AgencyFB-Reg, Agency FB"><tspan x="0" y="0">$</tspan></text>
    </g>
  </g>
</svg>
