<svg xmlns="http://www.w3.org/2000/svg" width="576.164" height="271.926" viewBox="0 0 576.164 271.926">
  <g id="Group_582" data-name="Group 582" transform="translate(-608.201 -45.291)">
    <path id="Path_498" data-name="Path 498" d="M702.451,53.05s30.313,36.882,39.806,51.351c-12.125,17.377-24.466,34.525-39.531,50.968v-26.15H623.174V80.333c20.056,0,79.323.015,79.323.015l-.139-19.536.093-7.762Z" transform="translate(214.256 111.045)" fill="#491e00"/>
    <path id="Path_499" data-name="Path 499" d="M662.965,47.315S632.65,84.2,623.174,98.65c12.11,17.392,24.466,34.525,39.531,50.983v-26.15h79.552V74.6c-20.072,0-79.338.015-79.338.015l.138-19.551-.092-7.747Z" transform="translate(214.256 28.976)" fill="#491e00"/>
    <rect id="Rectangle_208" data-name="Rectangle 208" width="178.297" height="271.925" rx="20" transform="translate(608.201 45.29)" fill="#491e00"/>
    <rect id="Rectangle_209" data-name="Rectangle 209" width="143.119" height="208.002" rx="0.432" transform="translate(625.79 71.593)" fill="#fff"/>
    <rect id="Rectangle_210" data-name="Rectangle 210" width="38.059" height="10.833" rx="5" transform="translate(678.32 54.343)" fill="#fff"/>
    <circle id="Ellipse_104" data-name="Ellipse 104" cx="12.368" cy="12.368" r="12.368" transform="translate(684.982 286.132)" fill="#fff"/>
    <g id="Group_302" data-name="Group 302" transform="translate(668.405 101.094)">
      <path id="Path_500" data-name="Path 500" d="M669.561,166.242q0,6.729-4.133,9.263c-1.99,1.225-5.16,1.837-9.492,1.837-.72,0-1.838-.031-3.369-.076h-3.444v10.641H632.358V177.265H628.9c-1.471.046-2.6.076-3.369.076q-6.43,0-9.416-1.837-3.974-2.457-3.98-9.263V138.821h17.912V162.8h21.6V139.434l-35.611-33.683a12.894,12.894,0,0,1-3.9-9.722V70.6q0-6.729,3.98-9.263Q619.1,59.5,625.53,59.5c.765,0,1.913.031,3.415.077s2.633.077,3.414.077V48.935h16.765V59.652c.765,0,1.928-.031,3.475-.077s2.725-.077,3.491-.077q6.43,0,9.416,1.837,4.064,2.457,4.056,9.11v25.89H651.649V74.35h-21.6V95.417l35.382,33.376a12.671,12.671,0,0,1,4.133,9.722Z" transform="translate(-612.134 -48.935)" fill="#491e00"/>
    </g>
    <rect id="Rectangle_211" data-name="Rectangle 211" width="178.297" height="271.925" rx="20" transform="translate(1006.068 45.29)" fill="#491e00"/>
    <rect id="Rectangle_212" data-name="Rectangle 212" width="143.119" height="208.002" rx="0.432" transform="translate(1023.657 71.593)" fill="#fff"/>
    <rect id="Rectangle_213" data-name="Rectangle 213" width="38.059" height="10.833" rx="5" transform="translate(1076.187 54.343)" fill="#fff"/>
    <circle id="Ellipse_105" data-name="Ellipse 105" cx="12.368" cy="12.368" r="12.368" transform="translate(1082.849 286.132)" fill="#fff"/>
    <g id="Group_303" data-name="Group 303" transform="translate(1066.272 101.094)">
      <path id="Path_501" data-name="Path 501" d="M695.549,166.242q0,6.729-4.133,9.263-2.986,1.837-9.492,1.837c-.719,0-1.837-.031-3.369-.076H675.11v10.641H658.345V177.265h-3.459c-1.47.046-2.6.076-3.369.076q-6.429,0-9.415-1.837-3.974-2.457-3.981-9.263V138.821h17.912V162.8h21.6V139.434l-35.612-33.683a12.9,12.9,0,0,1-3.9-9.722V70.6q0-6.729,3.981-9.263,2.984-1.837,9.415-1.837c.765,0,1.914.031,3.415.077s2.634.077,3.414.077V48.935H675.11V59.652c.765,0,1.929-.031,3.475-.077,1.562-.046,2.725-.077,3.491-.077q6.43,0,9.416,1.837,4.065,2.457,4.057,9.11v25.89H677.636V74.35h-21.6V95.417l35.383,33.376a12.671,12.671,0,0,1,4.133,9.722Z" transform="translate(-638.12 -48.935)" fill="#491e00"/>
    </g>
  </g>
</svg>
