<svg xmlns="http://www.w3.org/2000/svg" xmlns:xlink="http://www.w3.org/1999/xlink" width="35" height="35" viewBox="0 0 35 35">
  <defs>
    <clipPath id="clip-path">
      <rect width="35" height="35" fill="none"/>
    </clipPath>
  </defs>
  <g id="Setting_Password" data-name="Setting Password" transform="translate(0 0.001)" clip-path="url(#clip-path)">
    <circle id="Ellipse_67" data-name="Ellipse 67" cx="17.5" cy="17.5" r="17.5" fill="#11338a"/>
    <path id="Path_421" data-name="Path 421" d="M128.64,283.77h-.349a.276.276,0,0,1-.2-.472l.246-.247a1.724,1.724,0,0,0,0-2.439l-4.014-4.015a1.726,1.726,0,0,0-2.439,0l-.247.247a.277.277,0,0,1-.472-.2V276.3a1.725,1.725,0,0,0-1.725-1.725h-5.677a1.725,1.725,0,0,0-1.725,1.725v.348a.277.277,0,0,1-.472.2l-.247-.247a1.726,1.726,0,0,0-2.439,0l-4.015,4.015a1.726,1.726,0,0,0,0,2.439l.247.247a.277.277,0,0,1-.2.472h-.348a1.725,1.725,0,0,0-1.725,1.725v5.677a1.725,1.725,0,0,0,1.725,1.725h.348a.277.277,0,0,1,.2.472l-.247.247a1.726,1.726,0,0,0,0,2.439l4.015,4.014a1.724,1.724,0,0,0,2.439,0l.247-.246a.276.276,0,0,1,.472.2v.349a1.725,1.725,0,0,0,1.725,1.725h5.677a1.725,1.725,0,0,0,1.725-1.725v-.349a.276.276,0,0,1,.472-.2l.247.246a1.724,1.724,0,0,0,2.439,0l4.014-4.014a1.724,1.724,0,0,0,0-2.439l-.246-.247a.276.276,0,0,1,.2-.472h.349a1.725,1.725,0,0,0,1.725-1.725v-5.677A1.725,1.725,0,0,0,128.64,283.77Z" transform="translate(-99.106 -270.833)" fill="#fff" stroke="#11338a" stroke-miterlimit="10" stroke-width="0.5"/>
    <path id="Path_422" data-name="Path 422" d="M125.521,285.193h0a.553.553,0,0,1-.391-.943h0a.552.552,0,0,0,0-.781l-3.659-3.66a.552.552,0,0,0-.781,0h0a.553.553,0,0,1-.944-.391h0a.552.552,0,0,0-.552-.552h-5.175a.552.552,0,0,0-.553.552h0a.552.552,0,0,1-.943.391h0a.552.552,0,0,0-.781,0l-3.66,3.66a.552.552,0,0,0,0,.781h0a.552.552,0,0,1-.391.943h0a.553.553,0,0,0-.552.553v5.175a.552.552,0,0,0,.552.552h0a.553.553,0,0,1,.391.944h0a.552.552,0,0,0,0,.781l3.66,3.66a.553.553,0,0,0,.781,0h0a.552.552,0,0,1,.943.39h0a.553.553,0,0,0,.553.553h5.175a.553.553,0,0,0,.552-.553h0a.553.553,0,0,1,.944-.39h0a.553.553,0,0,0,.781,0l3.659-3.66a.552.552,0,0,0,0-.781h0a.553.553,0,0,1,.391-.944h0a.553.553,0,0,0,.553-.552v-5.175A.554.554,0,0,0,125.521,285.193Z" transform="translate(-99.106 -270.833)" fill="#fff" stroke="#11338a" stroke-miterlimit="10" stroke-width="0.5"/>
    <g id="Group_279" data-name="Group 279" transform="translate(-99.106 -270.833)">
      <line id="Line_66" data-name="Line 66" y2="10.396" transform="translate(113.29 283.22)" fill="#fff" stroke="#11338a" stroke-miterlimit="10" stroke-width="0.25"/>
      <circle id="Ellipse_68" data-name="Ellipse 68" cx="0.789" cy="0.789" r="0.789" transform="translate(112.49 284.091)" fill="#fff" stroke="#11338a" stroke-miterlimit="10" stroke-width="0.25"/>
    </g>
    <g id="Group_280" data-name="Group 280" transform="translate(-99.106 -270.833)">
      <line id="Line_67" data-name="Line 67" y2="10.396" transform="translate(119.552 283.22)" fill="#fff" stroke="#11338a" stroke-miterlimit="10" stroke-width="0.25"/>
      <circle id="Ellipse_69" data-name="Ellipse 69" cx="0.868" cy="0.868" r="0.868" transform="translate(118.684 286.223)" fill="#fff" stroke="#11338a" stroke-miterlimit="10" stroke-width="0.25"/>
    </g>
    <g id="Group_281" data-name="Group 281" transform="translate(-99.106 -270.833)">
      <line id="Line_68" data-name="Line 68" y2="10.396" transform="translate(116.451 283.22)" fill="#fff" stroke="#11338a" stroke-miterlimit="10" stroke-width="0.25"/>
      <circle id="Ellipse_70" data-name="Ellipse 70" cx="0.868" cy="0.868" r="0.868" transform="translate(115.583 289.691)" fill="#fff" stroke="#11338a" stroke-miterlimit="10" stroke-width="0.25"/>
    </g>
  </g>
</svg>
