<svg xmlns="http://www.w3.org/2000/svg" xmlns:xlink="http://www.w3.org/1999/xlink" width="35" height="35" viewBox="0 0 35 35">
  <defs>
    <clipPath id="clip-path">
      <rect width="35" height="35" fill="none"/>
    </clipPath>
  </defs>
  <g id="Size_icon" data-name="Size icon" clip-path="url(#clip-path)">
    <g id="Group_271" data-name="Group 271" transform="translate(17.802 0.043)">
      <g id="Subtraction_1" data-name="Subtraction 1" transform="translate(8.027 0) rotate(45)" fill="#99b5ff">
        <path d="M 2.726110458374023 10.77163124084473 L 0.8259504437446594 10.77127647399902 L 6.455316543579102 0.9811723232269287 L 12.08394432067871 10.76995754241943 L 10.26370525360107 10.77097320556641 L 6.928915977478027 4.970695018768311 L 6.495495796203613 4.216835021972656 L 6.062005996704102 4.970654964447021 L 2.726110458374023 10.77163124084473 Z" stroke="none"/>
        <path d="M 2.436891555786133 10.27157688140869 L 5.628565788269043 4.721395015716553 L 6.495535850524902 3.213765144348145 L 7.362375736236572 4.721475124359131 L 10.55288982391357 10.27081203460693 L 11.21995258331299 10.27043914794922 L 6.455314636230469 1.984224557876587 L 1.69011926651001 10.2714376449585 L 2.436891555786133 10.27157688140869 M 3.015326023101807 11.27168464660645 L 3.014675855636597 11.27168464660645 L -0.03822408244013786 11.27111530303955 L 6.455316066741943 -0.02188490331172943 L 12.94793605804443 11.26947498321533 L 9.974515914916992 11.2711353302002 L 6.495445728302002 5.219904899597168 L 3.015645980834961 11.27112483978271 L 3.015326023101807 11.27168464660645 Z" stroke="none" fill="#fff"/>
      </g>
    </g>
    <g id="Group_272" data-name="Group 272" transform="translate(-0.043 17.168) rotate(-90)">
      <g id="Subtraction_1-2" data-name="Subtraction 1" transform="translate(7.974 0) rotate(45)" fill="#99b5ff">
        <path d="M 2.802701711654663 10.81568050384521 L 0.9025473594665527 10.81533813476563 L 6.531956195831299 1.02521014213562 L 12.16054153442383 10.8139705657959 L 10.34029579162598 10.8149995803833 L 7.005537509918213 5.014732837677002 L 6.572117328643799 4.260872840881348 L 6.138627529144287 5.014682769775391 L 2.802701711654663 10.81568050384521 Z" stroke="none"/>
        <path d="M 2.513488054275513 10.31562900543213 L 5.705187320709229 4.765432834625244 L 6.57216739654541 3.257802963256836 L 7.438997268676758 4.765512943267822 L 10.62948036193848 10.31483554840088 L 11.2965612411499 10.3144588470459 L 6.531957626342773 2.028262376785278 L 1.766727328300476 10.31549453735352 L 2.513488054275513 10.31562900543213 M 3.091917514801025 11.31573295593262 L 3.091267347335815 11.31573295593262 L 0.03836740925908089 11.31518268585205 L 6.531957626342773 0.02215292863547802 L 13.02452754974365 11.31348323822021 L 10.05110740661621 11.31516265869141 L 6.572067260742188 5.263942718505859 L 3.09223747253418 11.31518268585205 L 3.091917514801025 11.31573295593262 Z" stroke="none" fill="#fff"/>
      </g>
    </g>
    <g id="Group_273" data-name="Group 273" transform="translate(17.198 34.957) rotate(180)">
      <g id="Subtraction_1-3" data-name="Subtraction 1" transform="translate(8.027 0) rotate(45)" fill="#99b5ff">
        <path d="M 2.726110458374023 10.77163124084473 L 0.8259504437446594 10.77127647399902 L 6.455316543579102 0.9811723232269287 L 12.08394432067871 10.76995754241943 L 10.26370525360107 10.77097320556641 L 6.928915977478027 4.970695018768311 L 6.495495796203613 4.216835021972656 L 6.062005996704102 4.970654964447021 L 2.726110458374023 10.77163124084473 Z" stroke="none"/>
        <path d="M 2.436891555786133 10.27157688140869 L 5.628565788269043 4.721395015716553 L 6.495535850524902 3.213765144348145 L 7.362375736236572 4.721475124359131 L 10.55288982391357 10.27081203460693 L 11.21995258331299 10.27043914794922 L 6.455314636230469 1.984224557876587 L 1.69011926651001 10.2714376449585 L 2.436891555786133 10.27157688140869 M 3.015326023101807 11.27168464660645 L 3.014675855636597 11.27168464660645 L -0.03822408244013786 11.27111530303955 L 6.455316066741943 -0.02188490331172943 L 12.94793605804443 11.26947498321533 L 9.974515914916992 11.2711353302002 L 6.495445728302002 5.219904899597168 L 3.015645980834961 11.27112483978271 L 3.015326023101807 11.27168464660645 Z" stroke="none" fill="#fff"/>
      </g>
    </g>
    <g id="Group_274" data-name="Group 274" transform="translate(35.043 17.832) rotate(90)">
      <g id="Subtraction_1-4" data-name="Subtraction 1" transform="translate(7.974 0) rotate(45)" fill="#99b5ff">
        <path d="M 2.802701711654663 10.81568050384521 L 0.9025473594665527 10.81533813476563 L 6.531956195831299 1.02521014213562 L 12.16054153442383 10.8139705657959 L 10.34029579162598 10.8149995803833 L 7.005537509918213 5.014732837677002 L 6.572117328643799 4.260872840881348 L 6.138627529144287 5.014682769775391 L 2.802701711654663 10.81568050384521 Z" stroke="none"/>
        <path d="M 2.513488054275513 10.31562900543213 L 5.705187320709229 4.765432834625244 L 6.57216739654541 3.257802963256836 L 7.438997268676758 4.765512943267822 L 10.62948036193848 10.31483554840088 L 11.2965612411499 10.3144588470459 L 6.531957626342773 2.028262376785278 L 1.766727328300476 10.31549453735352 L 2.513488054275513 10.31562900543213 M 3.091917514801025 11.31573295593262 L 3.091267347335815 11.31573295593262 L 0.03836740925908089 11.31518268585205 L 6.531957626342773 0.02215292863547802 L 13.02452754974365 11.31348323822021 L 10.05110740661621 11.31516265869141 L 6.572067260742188 5.263942718505859 L 3.09223747253418 11.31518268585205 L 3.091917514801025 11.31573295593262 Z" stroke="none" fill="#fff"/>
      </g>
    </g>
  </g>
</svg>
