<svg xmlns="http://www.w3.org/2000/svg" xmlns:xlink="http://www.w3.org/1999/xlink" width="48" height="48" viewBox="0 0 48 48">
  <defs>
    <clipPath id="clip-path">
      <rect width="48" height="48" fill="none"/>
    </clipPath>
  </defs>
  <g id="Task_Management_Icon" data-name="Task Management Icon" transform="translate(0 0.001)" clip-path="url(#clip-path)">
    <circle id="Ellipse_89" data-name="Ellipse 89" cx="24" cy="24" r="24" fill="#b39000"/>
    <g id="Group_293" data-name="Group 293" transform="translate(-327.923 -83.667)">
      <path id="Path_461" data-name="Path 461" d="M361.93,107.908V97.97c0-1.43-.61-2.04-2.06-2.04h-3.18c0-.28.01-.47,0-.65-.01-.86-.01-.91-.01-.91h-2c-.15-1.86-.92-2.71-2.47-2.77-1.05-.04-2.11-.03-3.16,0a2.381,2.381,0,0,0-2.47,2.43c0,.09-.01.15-.01.32-.53,0-1.92.03-1.92.03-.02.7-.03.73-.05,1.55-.92,0-2.23-.02-3.3-.02-1.4.01-2,.61-2,2.03v22.31c0,1.41.62,2.01,2,2.01,5.73.01,11.285.01,17.005.01.16,0,.41-.01.57-.02a7.381,7.381,0,0,1-1.01-.84c-5.52-.01-10.885,0-16.4-.01-1.08,0-1.21-.13-1.21-1.2V99.73a19.812,19.812,0,0,1,.02-2.04c.03-.28.33-.74.53-.75,1.25-.07,2.5-.04,3.8-.04v.72c.01,1.03.01,1.03,1.06,1.03h9.92c1.1,0,1.1,0,1.11-1.07.01-.22,0-.44,0-.71h3.13c1.05.01,1.22.18,1.22,1.24v9.728a1.735,1.735,0,0,0,.01.4,6.281,6.281,0,0,1,.875-.247A.514.514,0,0,1,361.93,107.908ZM347.51,93.8a1.44,1.44,0,0,1,1.45-1.26q1.65-.015,3.3,0c1,.02,1.54.67,1.45,1.79H347.5A1.132,1.132,0,0,1,347.51,93.8Zm8.19,3.96H345.5V95.31h10.2Z" fill="#b39000" stroke="#fff" stroke-miterlimit="10" stroke-width="0.25"/>
    </g>
    <path id="Path_462" data-name="Path 462" d="M353.71,94.33H347.5a1.132,1.132,0,0,1,.01-.53,1.44,1.44,0,0,1,1.45-1.26q1.65-.015,3.3,0C353.26,92.56,353.8,93.21,353.71,94.33Z" transform="translate(-327.923 -83.667)" fill="#fff"/>
    <rect id="Rectangle_204" data-name="Rectangle 204" width="10.2" height="2.45" transform="translate(17.577 11.643)" fill="#fff"/>
    <path id="Path_463" data-name="Path 463" d="M363.561,109.3a6.522,6.522,0,1,1-6.549,6.5A6.6,6.6,0,0,1,363.561,109.3Zm-5.616,6.487a5.585,5.585,0,1,0,5.664-5.553A5.571,5.571,0,0,0,357.945,115.791Z" transform="translate(-327.923 -83.667)" fill="#fff"/>
    <path id="Path_464" data-name="Path 464" d="M355.66,115.8a7.87,7.87,0,0,0,2.37,5.61c-5.52-.01-11.05,0-16.57-.01-1.08,0-1.21-.13-1.21-1.2V99.73a19.812,19.812,0,0,1,.02-2.04c.03-.28.33-.74.53-.75,1.25-.07,2.5-.04,3.8-.04v.72c.01,1.03.01,1.03,1.06,1.03h9.92c1.1,0,1.1,0,1.11-1.07.01-.22,0-.44,0-.71h3.13c1.05.01,1.22.18,1.22,1.24v9.78a2.549,2.549,0,0,0,.01.48A7.934,7.934,0,0,0,355.66,115.8Z" transform="translate(-327.923 -83.667)" fill="#fff"/>
    <path id="Path_465" data-name="Path 465" d="M363.561,109.3a6.522,6.522,0,1,1-6.549,6.5A6.6,6.6,0,0,1,363.561,109.3Zm-5.616,6.487a5.585,5.585,0,1,0,5.664-5.553A5.571,5.571,0,0,0,357.945,115.791Z" transform="translate(-327.923 -83.667)" fill="#fff"/>
    <path id="Path_466" data-name="Path 466" d="M350.07,104.8s-3.39-3.16-5.35-5.11c-1.03-1.04-1.26-1.23-2.24-.95a1.519,1.519,0,0,0-1.04,1.5,1.41,1.41,0,0,0,.5,1.11c1.14,1.14,6.22,5.76,6.22,5.76l4.89,2.49Zm-7.81-4.75a.687.687,0,0,1,.49-.55s.48-.29,1.31.5l-1.16,1.24C342.34,100.77,342.14,100.53,342.26,100.05Zm1.38,1.71c.31-.34.6-.67.93-1.04,1.62,1.51,3.23,3.01,4.9,4.57-.35.38-.64.7-.95,1.03C346.87,104.79,345.27,103.29,343.64,101.76Zm6.38,4.28c.44.68.84,1.3,1.24,1.94-.64-.36-1.27-.7-1.99-1.1Z" transform="translate(-327.923 -83.667)" fill="#b39000"/>
    <path id="Path_467" data-name="Path 467" d="M344.06,100l-1.16,1.24c-.56-.47-.76-.71-.64-1.19a.687.687,0,0,1,.49-.55S343.23,99.21,344.06,100Z" transform="translate(-327.923 -83.667)" fill="#fffffe"/>
    <path id="Path_468" data-name="Path 468" d="M351.26,107.98c-.64-.36-1.27-.7-1.99-1.1l.75-.84C350.46,106.72,350.86,107.34,351.26,107.98Z" transform="translate(-327.923 -83.667)" fill="#fffffe"/>
    <path id="Path_469" data-name="Path 469" d="M349.47,105.29c-.35.38-.64.7-.95,1.03-1.65-1.53-3.25-3.03-4.88-4.56.31-.34.6-.67.93-1.04C346.19,102.23,347.8,103.73,349.47,105.29Z" transform="translate(-327.923 -83.667)" fill="#fffffe"/>
    <path id="Path_470" data-name="Path 470" d="M354.073,100.469v4.446h4.39c0-.485.021-1.443.021-1.443s-.047-.562.45-.562.433.583.433.583.017,1.17.022,1.756a.583.583,0,0,1-.646.659c-1.688.009-3.375.005-5.062,0-.433,0-.629-.217-.626-.657q.014-2.53,0-5.062c0-.453.207-.621.646-.618,1.688.01,3.375-.011,5.062.023.207,0,.613-.01.613.414s-.424.428-.642.436c-1.369-.006-3.8.021-3.8.021Z" transform="translate(-327.923 -83.667)" fill="#b39000"/>
    <path id="Path_471" data-name="Path 471" d="M349.4,118.99q-3.129,0-6.257,0c-.37,0-.853.073-.869-.451s.456-.491.835-.491h10.955c.14,0,.415.019.415.019s.465.044.465.477-.5.428-.5.428-.321.018-.485.018Z" transform="translate(-327.923 -83.667)" fill="#b39000"/>
    <path id="Path_472" data-name="Path 472" d="M349.228,111.308c2.039,0,2.8,0,4.844,0,.347,0,.791-.026.791.451s-.413.477-.771.477h-11.1c-.73,0-.73-.483-.73-.483s-.052-.427.709-.427S347.141,111.308,349.228,111.308Z" transform="translate(-327.923 -83.667)" fill="#b39000"/>
    <path id="Path_473" data-name="Path 473" d="M349.148,115.649q-3.095,0-6.188,0c-.319,0-.717.076-.731-.419s.369-.453.7-.453c4.149,0,4.814,0,8.963,0,.341,0,.783-.082.764.458s-.48.408-.8.409C349.79,115.653,351.211,115.649,349.148,115.649Z" transform="translate(-327.923 -83.667)" fill="#b39000"/>
    <path id="Path_474" data-name="Path 474" d="M356.312,103.2c.891-.739,1.732-1.437,2.574-2.134.256-.211.549-.5.819-.109s-.078.565-.252.721c-.888.8-1.823,1.54-2.728,2.317-.464.4-.814.363-1.131-.176-.261-.442-.828-1.3-.828-1.3s-.276-.5.087-.7.63.2.63.2S356.019,102.77,356.312,103.2Z" transform="translate(-327.923 -83.667)" fill="#b39000"/>
    <path id="Path_475" data-name="Path 475" d="M363.631,115.11a.941.941,0,1,1-.945.937A.951.951,0,0,1,363.631,115.11Zm-.415,1.342,0,0a.567.567,0,0,0,.8.017h0a.568.568,0,0,0,.022-.805l0,0a.569.569,0,0,0-.811-.014h0A.568.568,0,0,0,363.216,116.452Z" transform="translate(-327.923 -83.667)" fill="#fff"/>
    <path id="Path_476" data-name="Path 476" d="M363.13,115.405l.5-4.271.5,4.271Z" transform="translate(-327.923 -83.667)" fill="#fff"/>
    <path id="Path_477" data-name="Path 477" d="M364.272,115.548l3.569.5-3.569.5Z" transform="translate(-327.923 -83.667)" fill="#fff"/>
  </g>
</svg>
