<svg xmlns="http://www.w3.org/2000/svg" width="447.166" height="447.428" viewBox="0 0 447.166 447.428">
  <g id="Task_Management" data-name="Task Management" transform="translate(-11.254 -7.789)">
    <g id="Group_293" data-name="Group 293" transform="translate(11.377 7.907)">
      <path id="Path_461" data-name="Path 461" d="M668.241,329V184.549c0-20.786-8.866-29.653-29.943-29.653H592.074c0-4.07.146-6.832,0-9.448-.146-12.5-.146-13.227-.146-13.227H562.857c-2.18-27.036-13.373-39.391-35.9-40.264-15.262-.582-30.67-.436-45.933,0-21.658.727-34.449,13.809-35.9,35.322,0,1.308-.145,2.18-.145,4.651-7.7,0-27.909.436-27.909.436-.291,10.175-.436,10.611-.727,22.53-13.373,0-32.415-.291-47.968-.291-20.35.145-29.071,8.867-29.071,29.507V508.4c0,20.5,9.012,29.217,29.071,29.217,83.289.145,164.034.145,247.178.145,2.326,0,5.959-.145,8.285-.291a107.318,107.318,0,0,1-14.681-12.21c-80.236-.145-158.22,0-238.457-.145-15.7,0-17.588-1.89-17.588-17.443V210.132c0-9.884-.727-19.914.291-29.653.436-4.07,4.8-10.756,7.7-10.9,18.169-1.017,36.339-.581,55.236-.581v10.466c.145,14.972.145,14.972,15.408,14.972H575.939c15.989,0,15.989,0,16.135-15.553.146-3.2,0-6.4,0-10.32h45.5c15.262.145,17.733,2.616,17.733,18.024v141.4c0,2.326-.291,3.576.145,5.756a91.3,91.3,0,0,1,12.719-3.59A7.47,7.47,0,0,1,668.241,329Zm-209.6-205.068c2.18-11.047,9.738-18.17,21.076-18.315q23.984-.218,47.968,0c14.536.291,22.385,9.739,21.076,26.019H458.492S457.62,129.023,458.638,123.936ZM577.684,181.5H429.421V145.884H577.684Z" transform="translate(-339.3 -91.574)" fill="#6f5900" stroke="#fff" stroke-miterlimit="10" stroke-width="0.25"/>
    </g>
    <path id="Path_462" data-name="Path 462" d="M438.09,118.66H347.824s-.873-2.616.146-7.7c2.18-11.047,9.738-18.17,21.076-18.315q23.984-.218,47.968,0C431.549,92.932,439.4,102.38,438.09,118.66Z" transform="translate(-217.255 -70.688)" fill="#b39000"/>
    <rect id="Rectangle_204" data-name="Rectangle 204" width="148.264" height="35.612" transform="translate(101.498 62.218)" fill="#b39000"/>
    <path id="Path_463" data-name="Path 463" d="M452.207,109.3c51.18.145,94.263,43.258,94.394,94.453.131,51.529-43.127,94.917-94.874,95.135-51.428.233-94.889-43.432-94.714-95.15C357.173,151.937,400.314,109.145,452.207,109.3ZM370.574,203.6c-.407,44.29,35.525,81.2,79.466,81.574,44.857.392,82.446-35.074,82.838-78.173.436-46.95-34.507-83.711-79.975-84.118C407.35,122.459,371.01,158.086,370.574,203.6Z" transform="translate(-88.181 156.325)" fill="#fff"/>
    <path id="Path_464" data-name="Path 464" d="M564.478,372.029c-.146,31.542,13.228,60.468,34.45,81.545-80.237-.145-160.619,0-240.855-.145-15.7,0-17.588-1.89-17.588-17.443V138.442c0-9.884-.727-19.914.291-29.653.436-4.07,4.8-10.756,7.7-10.9,18.169-1.017,36.339-.581,55.236-.581v10.466c.145,14.972.145,14.972,15.408,14.972H563.315c15.989,0,15.989,0,16.135-15.553.146-3.2,0-6.4,0-10.32h45.5c15.262.145,17.733,2.616,17.733,18.024V257.052c0,2.326-.291,4.8.145,6.977C597.765,279.292,564.624,322.172,564.478,372.029Z" transform="translate(-315.299 -11.977)" fill="#b39000"/>
    <path id="Path_465" data-name="Path 465" d="M452.207,109.3c51.18.145,94.263,43.258,94.394,94.453.131,51.529-43.127,94.917-94.874,95.135-51.428.233-94.889-43.432-94.714-95.15C357.173,151.937,400.314,109.145,452.207,109.3ZM370.574,203.6c-.407,44.29,35.525,81.2,79.466,81.574,44.857.392,82.446-35.074,82.838-78.173.436-46.95-34.507-83.711-79.975-84.118C407.35,122.459,371.01,158.086,370.574,203.6Z" transform="translate(-88.181 156.325)" fill="#6f5900"/>
    <path id="Path_466" data-name="Path 466" d="M466.882,188.4s-49.276-45.933-77.766-74.277c-14.972-15.117-18.315-17.879-32.56-13.809-11.629,2.762-15.117,15.262-15.117,21.8.872,9.158,2.616,11.483,7.268,16.135,16.57,16.571,90.412,83.725,90.412,83.725L510.2,258.174ZM353.359,119.359c1.89-7.123,7.122-7.995,7.122-7.995s6.977-4.215,19.042,7.268l-16.861,18.024C354.522,129.825,351.615,126.336,353.359,119.359Zm20.059,24.856c4.506-4.942,8.721-9.739,13.518-15.117,23.547,21.949,46.95,43.752,71.224,66.428-5.087,5.523-9.3,10.175-13.809,14.972C420.368,188.258,397.111,166.454,373.418,144.215Zm92.737,62.212c6.4,9.884,12.21,18.9,18.024,28.2-9.3-5.233-18.46-10.175-28.926-15.989Z" transform="translate(-298.957 11.757)" fill="#fff"/>
    <path id="Path_467" data-name="Path 467" d="M368.877,107.471,352.016,125.5c-8.14-6.832-11.047-10.32-9.3-17.3,1.89-7.123,7.122-7.995,7.122-7.995S356.813,95.988,368.877,107.471Z" transform="translate(-288.311 22.918)" fill="#b39000"/>
    <path id="Path_468" data-name="Path 468" d="M378.2,134.239c-9.3-5.233-18.46-10.175-28.926-15.989l10.9-12.21C366.567,115.924,372.381,124.936,378.2,134.239Z" transform="translate(-192.973 112.145)" fill="#b39000"/>
    <path id="Path_469" data-name="Path 469" d="M428.382,167.148c-5.087,5.523-9.3,10.175-13.809,14.972-23.984-22.24-47.241-44.043-70.934-66.282,4.506-4.942,8.721-9.739,13.518-15.117C380.706,122.669,404.108,144.472,428.382,167.148Z" transform="translate(-269.178 40.135)" fill="#b39000"/>
    <path id="Path_470" data-name="Path 470" d="M367.853,112.57V177.2h63.812c0-7.05.305-20.975.305-20.975s-.683-8.169,6.541-8.169,6.294,8.474,6.294,8.474.247,17.007.32,25.525c.043,6.381-3.372,9.55-9.39,9.579-24.536.131-49.058.073-73.58.058-6.294-.015-9.143-3.154-9.1-9.55q.2-36.782.015-73.579c-.029-6.585,3.009-9.027,9.39-8.983,24.537.145,49.058-.16,73.58.334,3.009.058,8.911-.145,8.911,6.018s-6.164,6.221-9.333,6.337c-19.9-.087-55.177.305-55.177.305Z" transform="translate(-141.741 24.637)" fill="#fff"/>
    <path id="Path_471" data-name="Path 471" d="M445.857,131.76q-45.482,0-90.949-.015c-5.378,0-12.4,1.061-12.631-6.556s6.628-7.137,12.137-7.137H513.651c2.035,0,6.032.276,6.032.276s6.759.64,6.759,6.933-7.3,6.221-7.3,6.221-4.666.262-7.049.262C481.44,131.746,476.513,131.746,445.857,131.76Z" transform="translate(-287.714 274.661)" fill="#fff"/>
    <path id="Path_472" data-name="Path 472" d="M443.568,111.317c29.638,0,40.758-.029,70.411.015,5.044,0,11.5-.378,11.5,6.556s-6,6.933-11.207,6.933H352.88c-10.611,0-10.611-7.021-10.611-7.021s-.756-6.207,10.305-6.207C363.651,111.593,413.232,111.317,443.568,111.317Z" transform="translate(-287.882 183.442)" fill="#fff"/>
    <path id="Path_473" data-name="Path 473" d="M442.806,127.507q-44.981,0-89.947-.015c-4.637-.015-10.422,1.1-10.625-6.091-.2-7.166,5.363-6.584,10.174-6.584,60.309-.015,69.975-.029,130.283.015,4.957.015,11.381-1.192,11.1,6.657-.276,7.937-6.977,5.931-11.672,5.945C452.138,127.565,472.792,127.507,442.806,127.507Z" transform="translate(-288.282 230.351)" fill="#fff"/>
    <path id="Path_474" data-name="Path 474" d="M378.6,136.146c12.951-10.742,25.176-20.888,37.414-31.019,3.722-3.067,7.98-7.2,11.9-1.584,3.939,5.611-1.133,8.213-3.663,10.48-12.908,11.585-26.5,22.385-39.653,33.679-6.745,5.771-11.832,5.276-16.44-2.558-3.793-6.425-12.036-18.867-12.036-18.867s-4.012-7.239,1.265-10.2,9.157,2.922,9.157,2.922S374.339,129.9,378.6,136.146Z" transform="translate(-119.94 40.757)" fill="#fff"/>
    <path id="Path_475" data-name="Path 475" d="M376.422,115.11a13.678,13.678,0,1,1-13.736,13.62A13.82,13.82,0,0,1,376.422,115.11Zm-6.033,19.507.044.029a8.235,8.235,0,0,0,11.584.247h0a8.259,8.259,0,0,0,.32-11.7l-.029-.044a8.271,8.271,0,0,0-11.789-.2h0A8.26,8.26,0,0,0,370.39,134.617Z" transform="translate(-11.379 234.913)" fill="#b39000"/>
    <path id="Path_476" data-name="Path 476" d="M363.129,173.221l7.268-62.087,7.268,62.087Z" transform="translate(-5.375 181.097)" fill="#b39000"/>
    <path id="Path_477" data-name="Path 477" d="M364.271,115.548l51.872,7.268-51.872,7.268Z" transform="translate(10.089 240.846)" fill="#b39000"/>
  </g>
</svg>
