<svg xmlns="http://www.w3.org/2000/svg" width="440.361" height="595.338" viewBox="0 0 440.361 595.338">
  <g id="User_administrator" data-name="User administrator" transform="translate(-35.383 -14.104)">
    <path id="Path_478" data-name="Path 478" d="M574.726,254.473H330.568V46.784A70.249,70.249,0,0,1,382.306,57.9c31.131,20.9,40.767,66.562,20.012,94.876-8.894-9.784-9.191-28.018,1.631-36.468,1.186-1.186,6.819-2.075-.741-20.9-25.35,13.935-36.171,53.368-28.018,83.61,8.9,33.5,30.687,53.961,64.486,61.225,17.937,4,34.986.741,51.441-7.116.3-.148.445-.445.741-.445,9.932-1.482,18.382-16.9,32.91-6.374a20.67,20.67,0,0,1,4.892,10.674c4.151,22.237,6.078,19.272,26.832,12.156C566.572,245.579,572.057,246.913,574.726,254.473Z" transform="translate(-223.748 308.706)" fill="#e4bb00"/>
    <path id="Path_479" data-name="Path 479" d="M672.418,76.9V371.458a28.648,28.648,0,0,0-7.263-5.633c-40.767-23.126-80.941-46.993-121.56-70.416-5.485-3.113-7.412-6.226-7.412-12.6-.593-57.37-57.37-96.358-108.958-77.383,1.927,11.415,3.261,14.676,3.261,14.676s.741,1.927,3.409,15.121c0,0,24.46,15.566,9.191,39.878-4.892,7.709-16.01,11.415-25.794,9.636,30.094-61.373-7.412-111.924-45.659-125.118a87.225,87.225,0,0,0-41.064-4V76.9a40.08,40.08,0,0,1,40.026-40.174c83.135,52.819,170.7,48.268,261.651,0A40.206,40.206,0,0,1,672.418,76.9Z" transform="translate(-223.748 184.607)" fill="#e4bb00"/>
    <circle id="Ellipse_91" data-name="Ellipse 91" cx="94.519" cy="94.519" r="94.519" transform="translate(183.174 14.104)" fill="#e4bb00"/>
    <path id="Path_480" data-name="Path 480" d="M672.418,261.409v7.116H574.726c-2.668-7.56-8.153-8.895-18.234-5.337-20.754,7.116-22.681,10.081-26.832-12.156a20.67,20.67,0,0,0-4.892-10.674c-14.529-10.525-22.978,4.892-32.91,6.374-.3,0-.445.3-.741.445-16.455,7.857-33.5,11.118-51.441,7.116-33.8-7.264-55.591-27.722-64.486-61.225-8.153-30.242,2.668-69.675,28.018-83.61,7.561,18.827,1.927,19.716.741,20.9-10.822,8.45-10.525,26.684-1.631,36.468,20.755-28.315,11.119-73.974-20.012-94.876a70.249,70.249,0,0,0-51.738-11.118V45.566a87.225,87.225,0,0,1,41.064,4c38.247,13.194,75.753,63.745,45.659,125.118,9.784,1.779,20.9-1.927,25.794-9.636,15.269-24.312-9.191-39.878-9.191-39.878-2.668-13.194-3.409-15.121-3.409-15.121s-1.334-3.261-3.261-14.676c51.588-18.975,108.366,20.013,108.958,77.383,0,6.374,1.928,9.488,7.412,12.6,40.619,23.422,80.793,47.29,121.56,70.416A28.648,28.648,0,0,1,672.418,261.409Z" transform="translate(-223.748 294.656)" fill="#d7b611"/>
    <path id="Path_481" data-name="Path 481" d="M675.086,305.882c-9.191,2.817-18.234,6.374-27.573,8.45-4.447,1.038-9.636.148-14.231-1.186-5.336-1.631-10.377-6.523-15.418-6.523-8.6,0-13.342-2.817-15.714-10.674-1.927-6.819-6.819-10.081-13.787-9.191-8.45,1.038-11.415-2.965-12.156-10.822a31.09,31.09,0,0,0-1.483-7.412c-2.668-7.56-8.153-8.895-18.233-5.337-20.754,7.116-22.682,10.081-26.832-12.156a20.67,20.67,0,0,0-4.892-10.674c-14.527-10.525-22.978,4.892-32.91,6.374-.3,0-.445.3-.741.445-16.456,7.857-33.5,11.118-51.441,7.116-33.8-7.264-55.591-27.722-64.486-61.225-8.153-30.242,2.668-69.675,28.018-83.61,7.56,18.827,1.927,19.716.741,20.9-10.822,8.45-10.526,26.684-1.63,36.468,20.754-28.315,11.118-73.974-20.013-94.876a70.249,70.249,0,0,0-51.738-11.118V45.566a87.226,87.226,0,0,1,41.064,4c38.246,13.194,75.752,63.745,45.659,125.118,9.784,1.779,20.9-1.927,25.794-9.636,15.269-24.312-9.192-39.878-9.192-39.878-2.668-13.194-3.409-15.121-3.409-15.121s-1.334-3.261-3.261-14.676c51.588-18.975,108.366,20.013,108.959,77.383,0,6.374,1.927,9.488,7.412,12.6,40.619,23.422,80.793,47.29,121.56,70.416a28.662,28.662,0,0,1,7.265,5.633c3.26,3.558,5.04,7.709,5.93,13.045,1.037,6.523,2.075,13.194,3.558,19.716C683.388,300.545,680.867,303.954,675.086,305.882Z" transform="translate(-223.762 294.656)" fill="#574808"/>
    <path id="Path_482" data-name="Path 482" d="M474.331,134.753c-3.854,6.819-8.153,2.224-12.007-.148-8.6-4.892-17.048-9.784-25.647-14.824-15.269-8.746-30.538-17.641-45.807-26.536C375.3,84.2,359.739,75.011,343.728,65.672c2.076-3.706,3.41-6.523,5.337-10.229,37.357,21.644,73.973,42.991,110.59,64.338,2.964,1.779,5.93,3.41,8.895,5.189C472.107,127.045,477.741,128.527,474.331,134.753Z" transform="translate(-41.819 443.399)" fill="#dbae00"/>
    <path id="Path_483" data-name="Path 483" d="M396.485,60.012V44.743c-31.131,4.6-71.036,33.87-71.412,73.872-.613,53.12,24.419,72.593,71.412,87.121V190.763c-37.6-12.968-55.058-32.411-56.746-72.148C338.207,86.238,377.362,62.977,396.485,60.012Z" transform="translate(-289.68 295.478)" fill="#574808"/>
  </g>
</svg>
