<svg xmlns="http://www.w3.org/2000/svg" width="337.766" height="448.367" viewBox="0 0 337.766 448.367">
  <g id="User_administrator" data-name="User administrator" transform="translate(-36.121 -14.104)">
    <path id="Path_478" data-name="Path 478" d="M514.451,202.934H330.568V46.516a52.906,52.906,0,0,1,38.965,8.374c23.446,15.742,30.7,50.13,15.072,71.454-6.7-7.369-6.922-21.1,1.229-27.465.893-.893,5.135-1.563-.559-15.742-19.092,10.495-27.242,40.193-21.1,62.969,6.7,25.232,23.111,40.64,48.567,46.11,13.509,3.014,26.349.558,38.742-5.359.223-.112.335-.335.558-.335,7.48-1.116,13.844-12.728,24.786-4.8a15.567,15.567,0,0,1,3.684,8.039c3.126,16.747,4.577,14.514,20.208,9.155C508.311,196.235,512.442,197.24,514.451,202.934Z" transform="translate(-241.216 224.697)" fill="#e5bb00"/>
    <path id="Path_479" data-name="Path 479" d="M588.027,66.979V288.823a21.579,21.579,0,0,0-5.47-4.243c-30.7-17.417-60.959-35.392-91.551-53.033-4.131-2.345-5.583-4.689-5.583-9.49-.446-43.208-43.208-72.571-82.061-58.28,1.451,8.6,2.456,11.053,2.456,11.053s.558,1.451,2.568,11.388c0,0,18.422,11.723,6.922,30.033-3.684,5.806-12.058,8.6-19.427,7.257,22.664-46.222-5.582-84.294-34.387-94.23a65.692,65.692,0,0,0-30.927-3.014V66.979a30.186,30.186,0,0,1,30.145-30.256c62.612,39.78,128.562,36.352,197.058,0A30.281,30.281,0,0,1,588.027,66.979Z" transform="translate(-241.216 133.45)" fill="#e5bb00"/>
    <circle id="Ellipse_91" data-name="Ellipse 91" cx="71.185" cy="71.185" r="71.185" transform="translate(146.858 14.104)" fill="#e5bb00"/>
    <path id="Path_480" data-name="Path 480" d="M588.027,207.906v5.359H514.451c-2.01-5.694-6.141-6.7-13.732-4.019-15.631,5.359-17.082,7.592-20.208-9.155a15.567,15.567,0,0,0-3.684-8.039c-10.942-7.927-17.305,3.684-24.786,4.8-.223,0-.335.223-.558.335-12.393,5.917-25.232,8.374-38.742,5.359-25.456-5.471-41.868-20.878-48.567-46.11-6.141-22.776,2.01-52.474,21.1-62.969,5.694,14.179,1.451,14.849.559,15.742-8.15,6.364-7.927,20.1-1.229,27.465,15.631-21.325,8.374-55.712-15.072-71.454a52.906,52.906,0,0,0-38.965-8.374v-11.5a65.692,65.692,0,0,1,30.927,3.014c28.8,9.937,57.052,48.008,34.387,94.23,7.369,1.34,15.742-1.451,19.427-7.257,11.5-18.31-6.922-30.033-6.922-30.033-2.01-9.937-2.568-11.388-2.568-11.388s-1.005-2.456-2.456-11.053c38.853-14.291,81.614,15.072,82.061,58.28,0,4.8,1.451,7.145,5.583,9.49,30.592,17.64,60.848,35.615,91.551,53.033A21.579,21.579,0,0,1,588.027,207.906Z" transform="translate(-241.216 214.366)" fill="#d7b611"/>
    <path id="Path_481" data-name="Path 481" d="M590.036,241.4c-6.922,2.121-13.733,4.8-20.767,6.364-3.349.781-7.257.112-10.718-.893-4.019-1.228-7.816-4.912-11.612-4.912-6.475,0-10.048-2.121-11.834-8.039-1.452-5.136-5.136-7.592-10.383-6.922-6.364.781-8.6-2.233-9.155-8.15a23.413,23.413,0,0,0-1.117-5.582c-2.01-5.694-6.14-6.7-13.732-4.019-15.631,5.359-17.082,7.592-20.208-9.155a15.569,15.569,0,0,0-3.685-8.039c-10.941-7.927-17.305,3.684-24.786,4.8-.223,0-.335.223-.558.335-12.393,5.917-25.232,8.374-38.742,5.359-25.456-5.471-41.868-20.878-48.567-46.11-6.141-22.776,2.01-52.474,21.1-62.969,5.694,14.179,1.451,14.849.558,15.742-8.15,6.364-7.927,20.1-1.228,27.465,15.631-21.325,8.374-55.712-15.073-71.454a52.906,52.906,0,0,0-38.965-8.374v-11.5a65.691,65.691,0,0,1,30.927,3.014c28.8,9.937,57.052,48.008,34.387,94.23,7.369,1.34,15.742-1.451,19.427-7.257,11.5-18.31-6.922-30.033-6.922-30.033-2.01-9.937-2.568-11.388-2.568-11.388s-1-2.456-2.456-11.053c38.853-14.291,81.614,15.072,82.061,58.28,0,4.8,1.451,7.145,5.582,9.49,30.591,17.64,60.848,35.615,91.551,53.033a21.577,21.577,0,0,1,5.471,4.243,18.2,18.2,0,0,1,4.466,9.825c.781,4.913,1.563,9.937,2.679,14.849C596.288,237.381,594.39,239.949,590.036,241.4Z" transform="translate(-241.226 214.366)" fill="#897105"/>
    <path id="Path_482" data-name="Path 482" d="M442.089,115.174c-2.9,5.136-6.141,1.675-9.043-.112-6.475-3.684-12.839-7.369-19.315-11.165-11.5-6.587-23-13.286-34.5-19.985-11.723-6.81-23.446-13.733-35.5-20.766,1.563-2.791,2.568-4.912,4.02-7.7,28.135,16.3,55.712,32.378,83.289,48.455,2.233,1.34,4.466,2.568,6.7,3.908C440.415,109.369,444.657,110.485,442.089,115.174Z" transform="translate(-107.447 323.733)" fill="#e5bb00"/>
    <path id="Path_483" data-name="Path 483" d="M379.021,56.243v-11.5A64.657,64.657,0,0,0,327.105,88.62c-7.257,33.829,16.524,66.43,51.916,77.372V154.716c-40.974-17.864-50.911-51.693-36.062-74.8A52.352,52.352,0,0,1,379.021,56.243Z" transform="translate(-289.68 214.971)" fill="#897105"/>
  </g>
</svg>
