<svg xmlns="http://www.w3.org/2000/svg" xmlns:xlink="http://www.w3.org/1999/xlink" width="139.645" height="139.645" viewBox="0 0 139.645 139.645">
  <defs>
    <clipPath id="clip-path">
      <rect width="139.645" height="139.645" fill="none"/>
    </clipPath>
  </defs>
  <g id="Icon_view" data-name="Icon view" clip-path="url(#clip-path)">
    <ellipse id="Ellipse_50" data-name="Ellipse 50" cx="69.822" cy="69.822" rx="69.822" ry="69.822" fill="#85b229"/>
    <path id="Path_403" data-name="Path 403" d="M-7.627-13.11s3.46-4.018,7.22-4.018S7.41-13.11,7.41-13.11,36.736-.66,36.736,33.147,7.41,78.085,7.41,78.085,3.352,82.75-.407,82.75s-7.22-4.664-7.22-4.664-32.708-9.22-32.708-44.938S-7.627-13.11-7.627-13.11Z" transform="translate(102.604 70.726) rotate(90)" fill="#fff"/>
    <path id="Path_404" data-name="Path 404" d="M-16.035-14.143s2.571-2.985,5.364-2.985,5.808,2.985,5.808,2.985S16.924-4.893,16.924,20.223-4.863,53.61-4.863,53.61s-3.015,3.465-5.808,3.465-5.364-3.465-5.364-3.465-24.3-6.85-24.3-33.386S-16.035-14.143-16.035-14.143Z" transform="translate(89.767 80.632) rotate(90)" fill="#85b229"/>
    <path id="Path_405" data-name="Path 405" d="M-22.255-14.907s1.913-2.221,3.991-2.221,4.321,2.221,4.321,2.221,16.21,6.882,16.21,25.57S-13.943,35.5-13.943,35.5s-2.243,2.578-4.321,2.578S-22.255,35.5-22.255,35.5s-18.08-5.1-18.08-24.84S-22.255-14.907-22.255-14.907Z" transform="translate(80.27 87.961) rotate(90)" fill="#fff"/>
    <ellipse id="Ellipse_60" data-name="Ellipse 60" cx="13.822" cy="13.822" rx="13.822" ry="13.822" transform="translate(56 56)" fill="#85b229"/>
  </g>
</svg>
