<svg xmlns="http://www.w3.org/2000/svg" xmlns:xlink="http://www.w3.org/1999/xlink" width="48" height="48" viewBox="0 0 48 48">
  <defs>
    <clipPath id="clip-path">
      <rect width="48" height="48" fill="none"/>
    </clipPath>
  </defs>
  <g id="Withdrawal_Icon" data-name="Withdrawal Icon" transform="translate(0 0.001)" clip-path="url(#clip-path)">
    <circle id="Ellipse_107" data-name="Ellipse 107" cx="24" cy="24" r="24" fill="#891824"/>
    <g id="Group_314" data-name="Group 314" transform="translate(-725.786 -30.362)">
      <path id="Path_525" data-name="Path 525" d="M745.133,62.735c0-.715.005-1.385-.005-2.053a.972.972,0,0,0-.106-.33c-.423-1.016-.834-2.037-1.28-3.041a2.841,2.841,0,0,1-.272-1.359c.022-.362,0-.725,0-1.13h-.393q-1.951,0-3.9,0c-.5,0-.679-.182-.679-.7q0-4.8,0-9.6v-.428h-1.839c-.3,0-.6,0-.9,0a.532.532,0,0,1-.579-.591q-.008-2.225,0-4.449c0-.413.206-.6.633-.606l5.322,0,23.154,0c.595,0,.756.16.756.769q0,2.1,0,4.2c0,.485-.193.68-.671.68h-2.649V44.5q0,4.731,0,9.462c0,.729-.127.857-.845.858l-3.179,0h-.4c0,.667,0,1.3,0,1.932a4.57,4.57,0,0,1-1.977,3.9.484.484,0,0,0-.241.455c.015.527.005,1.055.005,1.623.368,0,.709-.006,1.051,0a.551.551,0,0,1,.609.635q0,4.166,0,8.332a.559.559,0,0,1-.643.637q-6.549,0-13.1,0c-.441,0-.636-.195-.637-.639q0-4.166,0-8.332c0-.425.2-.628.612-.63C743.682,62.732,744.383,62.735,745.133,62.735Zm15.457-9.041V41.85H739.627V53.675h3.826V52.008l-.516-.025a1.744,1.744,0,0,0-1.606-1.68c-.473-.041-.621-.2-.622-.693q0-1.854,0-3.708c0-.474.16-.647.631-.689a1.687,1.687,0,0,0,1.579-1.621c.038-.461.212-.636.648-.636l13.065,0c.472,0,.63.155.671.643a1.7,1.7,0,0,0,1.59,1.615c.467.04.619.207.62.695q0,1.854,0,3.708c0,.479-.154.642-.632.685A1.712,1.712,0,0,0,757.3,51.9c-.049.529-.194.664-.722.664l-8.882,0h-.387c.038.294-.016.639.122.764a1.409,1.409,0,0,0,.858.35c2.188.029,4.378.017,6.567.017Zm-6.607,9.033c0-.674.025-1.32-.009-1.963a.939.939,0,0,1,.505-.941,4.281,4.281,0,0,0,1-.9c.985-1.221.668-2.684.714-4.083h-7.071a5.438,5.438,0,0,1,.961,3.92h-1.038c-.017-.037-.034-.057-.034-.078,0-.212,0-.423-.006-.635a3.9,3.9,0,0,0-2.37-3.8.623.623,0,0,1-.4-.632c.008-.977,0-1.954,0-2.93a.881.881,0,0,0-.488-.865c-.576-.285-1.172.161-1.174.878q-.006,2.736,0,5.472a1.209,1.209,0,0,0,.094.439c.382.931.743,1.873,1.174,2.78a4.05,4.05,0,0,1,.394,2.04c-.026.428-.005.859-.005,1.3ZM756.216,44.1h-12.23a2.89,2.89,0,0,1-2.155,2.211v2.782l1.678,1.081s.018-.052.034-.1a1.929,1.929,0,0,1,3.8.567c0,.255,0,.511,0,.783h8.89a2.908,2.908,0,0,1,2.161-2.208v-2.9A2.955,2.955,0,0,1,756.216,44.1Zm-.588,22.577H744.6V65.556h11.022V63.89H743.49v7.3h12.138ZM736.307,39.581v3.36h2.169V41.814h-1.07v-1.1h25.4v1.12h-1.057v1.093h2.174v-3.35Z" fill="#fff"/>
      <path id="Path_526" data-name="Path 526" d="M745.426,67.819a.847.847,0,1,1-.847.831A.827.827,0,0,1,745.426,67.819Z" fill="#fff"/>
    </g>
    <ellipse id="Ellipse_108" data-name="Ellipse 108" cx="2.609" cy="2.828" rx="2.609" ry="2.828" transform="translate(21.62 14.544)" fill="#fff"/>
    <g id="Group_315" data-name="Group 315" transform="translate(-725.786 -30.362)">
      <path id="Path_527" data-name="Path 527" d="M751.074,49.329a.338.338,0,0,1-.139.312.639.639,0,0,1-.321.062l-.113,0h-.116v.359h-.566V49.7H749.7l-.113,0a.636.636,0,0,1-.319-.062.34.34,0,0,1-.133-.312V48.4h.6v.808h.728v-.787l-1.2-1.136a.435.435,0,0,1-.132-.328V46.1a.345.345,0,0,1,.133-.313.636.636,0,0,1,.319-.062l.114,0,.115,0v-.361h.566v.361l.117,0,.118,0a.625.625,0,0,1,.317.062.33.33,0,0,1,.137.307v.873h-.6V46.23h-.728v.71l1.193,1.126a.43.43,0,0,1,.139.328Z" fill="#891824"/>
    </g>
  </g>
</svg>
