<svg xmlns="http://www.w3.org/2000/svg" xmlns:xlink="http://www.w3.org/1999/xlink" width="85.347" height="85.348" viewBox="0 0 85.347 85.348">
  <defs>
    <clipPath id="clip-path">
      <rect width="85.347" height="85.347" fill="none"/>
    </clipPath>
  </defs>
  <g id="profil_pict" data-name="profil pict" clip-path="url(#clip-path)">
    <path id="Subtraction_7" data-name="Subtraction 7" d="M-610.94-450.558h0a45.266,45.266,0,0,1-13.091-1.956,26.314,26.314,0,0,1-2.5-1.665v-25.231a.671.671,0,0,0-.671-.671.672.672,0,0,0-.671.671v24.152A26.159,26.159,0,0,1-637-475.115a26.008,26.008,0,0,1,2.057-10.185,26.076,26.076,0,0,1,5.608-8.318,26.089,26.089,0,0,1,7.646-5.313l10.857,18.852,10.857-18.851a26.088,26.088,0,0,1,7.646,5.313,26.075,26.075,0,0,1,5.608,8.318,26.007,26.007,0,0,1,2.057,10.185,26.159,26.159,0,0,1-9.125,19.859v-24.152a.671.671,0,0,0-.67-.671.672.672,0,0,0-.671.671v25.231c-.492.37-1.009.73-1.536,1.071A42.524,42.524,0,0,1-610.94-450.558Zm-.833-54.751a12.265,12.265,0,0,1-8.73-3.616,12.264,12.264,0,0,1-3.616-8.73,12.266,12.266,0,0,1,3.616-8.73,12.264,12.264,0,0,1,8.73-3.616,12.265,12.265,0,0,1,8.73,3.616,12.265,12.265,0,0,1,3.616,8.73,12.264,12.264,0,0,1-3.616,8.73A12.266,12.266,0,0,1-611.772-505.309Z" transform="translate(653.909 535.904)" fill="#4a7985"/>
    <g id="Ellipse_7" data-name="Ellipse 7" fill="none" stroke="#4a7985" stroke-width="1">
      <circle cx="42.673" cy="42.673" r="42.673" stroke="none"/>
      <circle cx="42.673" cy="42.673" r="42.173" fill="none"/>
    </g>
  </g>
</svg>
